<?xml version="1.0" encoding="UTF-8"?>
<svg width="98px" height="24px" viewBox="0 0 98 24" version="1.1" xmlns="http://www.w3.org/2000/svg" xmlns:xlink="http://www.w3.org/1999/xlink">
    <!-- Generator: Sketch 44.1 (41455) - http://www.bohemiancoding.com/sketch -->
    <title>bmtp-logo</title>
    <desc>Created with Sketch.</desc>
    <defs>
        <path d="M0,0 L12,0 L12,12 L0,12 L0,0 Z M3,3 L3,9 L9,9 L9,3 L3,3 Z" id="path-1"></path>
        <path d="M0,0 L12,0 L12,12 L0,12 L0,0 Z M9.78,6.06 L3.18,2.1 L3.18,10.02 L9.78,6.06 Z" id="path-3"></path>
        <path d="M0,0 L12,0 L12,12 L0,12 L0,0 Z M6,9.36 C7.78940259,9.36 9.24,7.90940259 9.24,6.12 C9.24,4.33059741 7.78940259,2.88 6,2.88 C4.21059741,2.88 2.76,4.33059741 2.76,6.12 C2.76,7.90940259 4.21059741,9.36 6,9.36 Z" id="path-5"></path>
        <path d="M0,0 L12,0 L12,12 L0,12 L0,0 Z M3.84,5.28 C4.63529004,5.28 5.28,4.63529004 5.28,3.84 C5.28,3.04470996 4.63529004,2.4 3.84,2.4 C3.04470996,2.4 2.4,3.04470996 2.4,3.84 C2.4,4.63529004 3.04470996,5.28 3.84,5.28 Z M3.84,9.6 C4.63529004,9.6 5.28,8.95529004 5.28,8.16 C5.28,7.36470996 4.63529004,6.72 3.84,6.72 C3.04470996,6.72 2.4,7.36470996 2.4,8.16 C2.4,8.95529004 3.04470996,9.6 3.84,9.6 Z M8.16,5.28 C8.95529004,5.28 9.6,4.63529004 9.6,3.84 C9.6,3.04470996 8.95529004,2.4 8.16,2.4 C7.36470996,2.4 6.72,3.04470996 6.72,3.84 C6.72,4.63529004 7.36470996,5.28 8.16,5.28 Z M8.16,9.6 C8.95529004,9.6 9.6,8.95529004 9.6,8.16 C9.6,7.36470996 8.95529004,6.72 8.16,6.72 C7.36470996,6.72 6.72,7.36470996 6.72,8.16 C6.72,8.95529004 7.36470996,9.6 8.16,9.6 Z" id="path-7"></path>
    </defs>
    <g id="Page-1" stroke="none" stroke-width="1" fill="none" fill-rule="evenodd">
        <g id="email-template-extended-(no-photo)" transform="translate(-173.000000, -140.000000)">
            <g id="logo" transform="translate(155.000000, 122.000000)">
                <path d="M57.9647264,36 L57.9647264,23.3964844 L63.6160936,23.3964844 C65.0692259,23.3964844 66.1678477,23.768551 66.9119921,24.5126953 C67.4744949,25.0751981 67.7557421,25.7841754 67.7557421,26.6396484 C67.7557421,27.893561 67.1580918,28.8310516 65.9627733,29.4521484 C66.7655117,29.721681 67.3822048,30.0981421 67.812871,30.581543 C68.2435372,31.0649438 68.4588671,31.7197224 68.4588671,32.5458984 C68.4588671,33.6533258 68.039926,34.5058564 67.2020311,35.1035156 C66.3641363,35.7011749 65.2303586,36 63.8006639,36 L57.9647264,36 Z M60.1444139,34.0400391 L63.8182421,34.0400391 C64.585824,34.0400391 65.1820095,33.8891617 65.6068163,33.5874023 C66.0316231,33.285643 66.2440233,32.8476591 66.2440233,32.2734375 C66.2440233,31.7343723 66.0272286,31.3183608 65.5936327,31.0253906 C65.1600368,30.7324204 64.5125823,30.5859375 63.6512499,30.5859375 L60.1444139,30.5859375 L60.1444139,34.0400391 Z M60.1444139,28.7138672 L63.1678514,28.7138672 C63.9061364,28.7138672 64.4876735,28.5659194 64.9124804,28.2700195 C65.3372872,27.9741196 65.5496874,27.5390654 65.5496874,26.9648438 C65.5496874,26.4667944 65.3563299,26.075685 64.9696093,25.7915039 C64.5828886,25.5073228 64.0379722,25.3652344 63.3348436,25.3652344 L60.1444139,25.3652344 L60.1444139,28.7138672 Z M73.6249609,36 L73.6249609,23.3964844 L75.9892187,23.3964844 L79.82125,29.3554688 L83.6532812,23.3964844 L86.00875,23.3964844 L86.00875,36 L83.7939062,36 L83.7939062,26.9648438 L79.82125,32.90625 L79.7509375,32.90625 L75.8046484,27 L75.8046484,36 L73.6249609,36 Z M91.0166407,25.453125 L91.0166407,23.3964844 L101.23832,23.3964844 L101.23832,25.453125 L97.248086,25.453125 L97.248086,36 L95.0156641,36 L95.0156641,25.453125 L91.0166407,25.453125 Z M106.246211,36 L106.246211,23.3964844 L111.22082,23.3964844 C112.685672,23.3964844 113.848746,23.7817344 114.710078,24.5522461 C115.571411,25.3227578 116.00207,26.3554623 116.00207,27.6503906 C116.00207,28.5644577 115.772092,29.3510709 115.312129,30.0102539 C114.852166,30.6694369 114.248656,31.157225 113.501582,31.4736328 C112.754508,31.7900406 111.909302,31.9482422 110.965938,31.9482422 L108.461055,31.9482422 L108.461055,36 L106.246211,36 Z M108.461055,29.953125 L111.03625,29.953125 C111.862426,29.953125 112.521599,29.7436544 113.013789,29.324707 C113.505979,28.9057596 113.75207,28.3535191 113.75207,27.6679688 C113.75207,26.9414026 113.510374,26.3847676 113.026973,25.9980469 C112.543572,25.6113262 111.880004,25.4179688 111.03625,25.4179688 L108.461055,25.4179688 L108.461055,29.953125 Z" id="BMTP" fill="#4A4A4A"></path>
                <g id="Group-6" stroke-width="1" transform="translate(18.000000, 18.000000)">
                    <g id="body">
                        <mask id="mask-2" fill="white">
                            <use xlink:href="#path-1"></use>
                        </mask>
                        <g id="Mask"></g>
                        <g id="Mixin/Colors/Blue" mask="url(#mask-2)" fill="#0063B9">
                            <rect id="Rectangle-2" x="0" y="0" width="12" height="12"></rect>
                        </g>
                    </g>
                    <g id="play" transform="translate(12.000000, 12.000000)">
                        <mask id="mask-4" fill="white">
                            <use xlink:href="#path-3"></use>
                        </mask>
                        <g id="Mask"></g>
                        <g id="Mixin/Colors/Blue" mask="url(#mask-4)" fill="#F6A623">
                            <rect id="Rectangle-2" x="0" y="0" width="12" height="12"></rect>
                        </g>
                    </g>
                    <g id="mind" transform="translate(12.000000, 0.000000)">
                        <mask id="mask-6" fill="white">
                            <use xlink:href="#path-5"></use>
                        </mask>
                        <g id="Mask"></g>
                        <g id="Mixin/Colors/Blue" mask="url(#mask-6)" fill="#E6021C">
                            <rect id="Rectangle-2" x="0" y="0" width="12" height="12"></rect>
                        </g>
                    </g>
                    <g id="team" transform="translate(0.000000, 12.000000)">
                        <mask id="mask-8" fill="white">
                            <use xlink:href="#path-7"></use>
                        </mask>
                        <g id="Mask"></g>
                        <g id="Mixin/Colors/Blue" mask="url(#mask-8)" fill="#7ACC1C">
                            <rect id="Rectangle-2" x="0" y="0" width="12" height="12"></rect>
                        </g>
                    </g>
                </g>
            </g>
        </g>
    </g>
</svg>