<?xml version="1.0" encoding="UTF-8"?>
<svg width="32px" height="32px" viewBox="0 0 32 32" version="1.1" xmlns="http://www.w3.org/2000/svg" xmlns:xlink="http://www.w3.org/1999/xlink">
    <!-- Generator: Sketch 44.1 (41455) - http://www.bohemiancoding.com/sketch -->
    <title>logo-instagram</title>
    <desc>Created with Sketch.</desc>
    <defs></defs>
    <g id="Page-1" stroke="none" stroke-width="1" fill="none" fill-rule="evenodd" opacity="0.400000006">
        <g id="email-template-extended-(no-photo)" transform="translate(-505.000000, -1058.000000)" fill="#000000">
            <g id="Group-2" transform="translate(261.000000, 1058.000000)">
                <path d="M273,6.375 L273,26.6953125 C273,27.585942 272.671878,28.3593717 272.015625,29.015625 C271.359372,29.6718783 270.562505,30 269.625,30 L249.375,30 C248.437495,30 247.640628,29.6718783 246.984375,29.015625 C246.328122,28.3593717 246,27.585942 246,26.6953125 L246,6.375 C246,5.43749531 246.328122,4.64062828 246.984375,3.984375 C247.640628,3.32812172 248.437495,3 249.375,3 L269.625,3 C270.562505,3 271.359372,3.32812172 272.015625,3.984375 C272.671878,4.64062828 273,5.43749531 273,6.375 Z M259.5,10.875 C257.953117,10.875 256.628912,11.4257757 255.527344,12.5273438 C254.425776,13.6289118 253.875,14.9531173 253.875,16.5 C253.875,18.0468827 254.425776,19.3710882 255.527344,20.4726562 C256.628912,21.5742243 257.953117,22.125 259.5,22.125 C261.046883,22.125 262.371088,21.5742243 263.472656,20.4726562 C264.574224,19.3710882 265.125,18.0468827 265.125,16.5 C265.125,14.9531173 264.574224,13.6289118 263.472656,12.5273438 C262.371088,11.4257757 261.046883,10.875 259.5,10.875 Z M270.75,9.75 L270.75,6.375 C270.75,5.62499625 270.375004,5.25 269.625,5.25 L266.25,5.25 C265.499996,5.25 265.125,5.62499625 265.125,6.375 L265.125,9.75 C265.125,10.5000038 265.499996,10.875 266.25,10.875 L269.625,10.875 C270.375004,10.875 270.75,10.5000038 270.75,9.75 Z M269.695312,27.75 C270.398441,27.75 270.75,27.3750037 270.75,26.625 L270.75,14.25 L267.09375,14.25 C267.281251,14.859378 267.375,15.6093705 267.375,16.5 C267.375,18.703136 266.625007,20.55468 265.125,22.0546875 C263.578117,23.6015702 261.703136,24.375 259.5,24.375 C257.343739,24.375 255.492195,23.6015702 253.945312,22.0546875 C252.39843,20.5078048 251.625,18.6562608 251.625,16.5 C251.625,15.7968715 251.742186,15.046879 251.976562,14.25 L248.25,14.25 L248.25,26.625 C248.25,26.9531266 248.367186,27.2226552 248.601562,27.4335938 C248.835939,27.6445323 249.117186,27.75 249.445312,27.75 L269.695312,27.75 Z" id="ion-social-instagram-outline---Ionicons"></path>
            </g>
        </g>
    </g>
</svg>