<?xml version="1.0" encoding="UTF-8"?>
<svg width="32px" height="32px" viewBox="0 0 32 32" version="1.1" xmlns="http://www.w3.org/2000/svg" xmlns:xlink="http://www.w3.org/1999/xlink">
    <!-- Generator: Sketch 44.1 (41455) - http://www.bohemiancoding.com/sketch -->
    <title>logo-linkedin</title>
    <desc>Created with Sketch.</desc>
    <defs></defs>
    <g id="Page-1" stroke="none" stroke-width="1" fill="none" fill-rule="evenodd" opacity="0.400000006">
        <g id="email-template-extended-(no-photo)" transform="translate(-435.000000, -1058.000000)" fill="#000000">
            <g id="Group-2" transform="translate(261.000000, 1058.000000)">
                <path d="M201.820312,3 C202.429691,3 202.94531,3.19921676 203.367188,3.59765625 C203.789065,3.99609574 204,4.49999695 204,5.109375 L204,27.6796875 C204,28.2890655 203.789065,28.8281227 203.367188,29.296875 C202.94531,29.7656273 202.429691,30 201.820312,30 L179.320312,30 C178.710934,30 178.171877,29.7656273 177.703125,29.296875 C177.234373,28.8281227 177,28.2890655 177,27.6796875 L177,5.109375 C177,4.49999695 177.222654,3.99609574 177.667969,3.59765625 C178.113283,3.19921676 178.664059,3 179.320312,3 L201.820312,3 Z M185.367188,25.5 L185.367188,13.4765625 L181.5,13.4765625 L181.5,25.5 L185.367188,25.5 Z M183.539062,11.6484375 C184.148441,11.6484375 184.652342,11.4492207 185.050781,11.0507812 C185.449221,10.6523418 185.648438,10.1718778 185.648438,9.609375 C185.648438,8.99999695 185.460939,8.49609574 185.085938,8.09765625 C184.710936,7.69921676 184.218753,7.5 183.609375,7.5 C182.999997,7.5 182.496096,7.69921676 182.097656,8.09765625 C181.699217,8.49609574 181.5,8.99999695 181.5,9.609375 C181.5,10.1718778 181.687498,10.6523418 182.0625,11.0507812 C182.437502,11.4492207 182.929684,11.6484375 183.539062,11.6484375 Z M199.5,25.5 L199.5,18.46875 C199.5,16.7343663 199.089848,15.4218795 198.269531,14.53125 C197.449215,13.6406205 196.382819,13.1953125 195.070312,13.1953125 C193.664055,13.1953125 192.492192,13.8515559 191.554688,15.1640625 L191.554688,13.4765625 L187.6875,13.4765625 L187.6875,25.5 L191.554688,25.5 L191.554688,18.6796875 C191.554688,18.2109352 191.601562,17.8828134 191.695312,17.6953125 C192.070314,16.7578078 192.726558,16.2890625 193.664062,16.2890625 C194.976569,16.2890625 195.632812,17.1562413 195.632812,18.890625 L195.632812,25.5 L199.5,25.5 Z" id="ion-social-linkedin---Ionicons"></path>
            </g>
        </g>
    </g>
</svg>