<?xml version="1.0" encoding="UTF-8"?>
<svg width="1110px" height="100px" viewBox="0 0 1110 100" version="1.1" xmlns="http://www.w3.org/2000/svg" xmlns:xlink="http://www.w3.org/1999/xlink">
    <!-- Generator: Sketch 42 (36781) - http://www.bohemiancoding.com/sketch -->
    <title>0-bmtp-artwork</title>
    <desc>Created with Sketch.</desc>
    <defs>
        <path d="M0,0 L50,0 L50,50 L0,50 L0,0 Z M12.5,12.5 L12.5,37.5 L37.5,37.5 L37.5,12.5 L12.5,12.5 Z" id="path-1"></path>
        <path d="M0,0 L50,0 L50,50 L0,50 L0,0 Z M40.75,25.25 L13.25,8.75 L13.25,41.75 L40.75,25.25 Z" id="path-3"></path>
        <path d="M0,0 L50,0 L50,50 L0,50 L0,0 Z M25,39 C32.4558441,39 38.5,32.9558441 38.5,25.5 C38.5,18.0441559 32.4558441,12 25,12 C17.5441559,12 11.5,18.0441559 11.5,25.5 C11.5,32.9558441 17.5441559,39 25,39 Z" id="path-5"></path>
        <path d="M0,0 L50,0 L50,50 L0,50 L0,0 Z M16,22 C19.3137085,22 22,19.3137085 22,16 C22,12.6862915 19.3137085,10 16,10 C12.6862915,10 10,12.6862915 10,16 C10,19.3137085 12.6862915,22 16,22 Z M16,40 C19.3137085,40 22,37.3137085 22,34 C22,30.6862915 19.3137085,28 16,28 C12.6862915,28 10,30.6862915 10,34 C10,37.3137085 12.6862915,40 16,40 Z M34,22 C37.3137085,22 40,19.3137085 40,16 C40,12.6862915 37.3137085,10 34,10 C30.6862915,10 28,12.6862915 28,16 C28,19.3137085 30.6862915,22 34,22 Z M34,40 C37.3137085,40 40,37.3137085 40,34 C40,30.6862915 37.3137085,28 34,28 C30.6862915,28 28,30.6862915 28,34 C28,37.3137085 30.6862915,40 34,40 Z" id="path-7"></path>
    </defs>
    <g id="Page-1" stroke="none" stroke-width="1" fill="none" fill-rule="evenodd">
        <g id="00---Landing" transform="translate(-163.000000, -923.000000)">
            <g id="Intro" transform="translate(0.000000, 755.000000)">
                <g id="Mixin/Colors/White" fill="#FFFFFF">
                    <rect id="Rectangle-2" x="0" y="0" width="1440" height="811"></rect>
                </g>
                <g id="0-bmtp-artwork" transform="translate(163.000000, 101.000000)">
                    <rect id="Rectangle-4" x="0" y="0" width="1110" height="234"></rect>
                    <path d="M775.738612,121.021219 L774.539214,121.021219 C774.400616,121.021219 774.288673,120.985855 774.203382,120.915125 C774.118091,120.844396 774.054124,120.754625 774.011479,120.645811 L772.940016,117.822089 L767.798596,117.822089 L766.727133,120.645811 C766.689819,120.743744 766.625851,120.830794 766.53523,120.906964 C766.444608,120.983134 766.332665,121.021219 766.199398,121.021219 L765,121.021219 L769.581701,109.326442 L771.156911,109.326442 L775.738612,121.021219 Z M768.230379,116.679543 L772.508233,116.679543 L770.709135,111.921654 C770.59186,111.627855 770.477252,111.260612 770.365308,110.819913 C770.30667,111.042983 770.249366,111.248367 770.193394,111.436072 C770.137422,111.623777 770.082783,111.788356 770.029476,111.929815 L768.230379,116.679543 Z M779.192879,112.754081 L779.192879,118.026115 C779.192879,118.651799 779.33414,119.136016 779.616666,119.478781 C779.899193,119.821547 780.325641,119.992927 780.896024,119.992927 C781.311818,119.992927 781.703617,119.892275 782.071435,119.690968 C782.439252,119.489662 782.777745,119.209469 783.086925,118.850381 L783.086925,112.754081 L784.510211,112.754081 L784.510211,121.021219 L783.662636,121.021219 C783.46007,121.021219 783.332136,120.920567 783.278829,120.71926 L783.166885,119.829706 C782.81506,120.226879 782.420595,120.546517 781.983479,120.788629 C781.546362,121.030741 781.045286,121.151795 780.480233,121.151795 C780.037786,121.151795 779.647319,121.076987 779.308821,120.927367 C778.970322,120.777747 778.686467,120.566922 778.457248,120.294886 C778.228028,120.02285 778.056116,119.693691 777.941507,119.307399 C777.826897,118.921108 777.769593,118.494018 777.769593,118.026115 L777.769593,112.754081 L779.192879,112.754081 Z M790.579166,112.615343 C790.930991,112.615343 791.260156,112.654787 791.56667,112.733678 C791.873185,112.812568 792.151709,112.928182 792.402251,113.080522 L794.601148,113.080522 L794.601148,113.619151 C794.601148,113.798695 794.489205,113.912949 794.265316,113.961915 L793.345778,114.092492 C793.527021,114.446139 793.617641,114.840585 793.617641,115.275843 C793.617641,115.678457 793.54168,116.04434 793.389756,116.373504 C793.237831,116.702668 793.027272,116.984221 792.758073,117.218172 C792.488873,117.452123 792.169037,117.631664 791.798554,117.756801 C791.428071,117.881938 791.021613,117.944505 790.579166,117.944505 C790.200687,117.944505 789.843537,117.898259 789.507703,117.805767 C789.337122,117.914582 789.207854,118.031555 789.119898,118.156692 C789.031942,118.281829 788.987964,118.404243 788.987964,118.523939 C788.987964,118.719805 789.065258,118.868063 789.219848,118.968716 C789.374438,119.069369 789.579666,119.141458 789.835539,119.184984 C790.091412,119.228509 790.38193,119.255713 790.707102,119.266594 C791.032273,119.277476 791.364104,119.295158 791.702602,119.319641 C792.041101,119.344124 792.372931,119.386289 792.698103,119.446137 C793.023275,119.505985 793.313792,119.603917 793.569665,119.739935 C793.825538,119.875953 794.030767,120.063655 794.185356,120.303047 C794.339946,120.542439 794.41724,120.852555 794.41724,121.233406 C794.41724,121.587053 794.330618,121.929813 794.157371,122.261697 C793.984123,122.593582 793.734917,122.888736 793.409746,123.147171 C793.084574,123.405605 792.687444,123.61235 792.218343,123.76741 C791.749243,123.922471 791.218848,124 790.627142,124 C790.035436,124 789.517034,123.940153 789.071922,123.820457 C788.62681,123.700761 788.257665,123.540262 787.964478,123.338955 C787.67129,123.137649 787.451403,122.905061 787.304809,122.641186 C787.158215,122.377311 787.084919,122.101198 787.084919,121.81284 C787.084919,121.404786 787.211521,121.057945 787.464728,120.772307 C787.717936,120.486669 788.065758,120.259522 788.508205,120.09086 C788.278985,119.982045 788.096412,119.836508 787.96048,119.654244 C787.824547,119.47198 787.756582,119.228511 787.756582,118.92383 C787.756582,118.804134 787.777904,118.68036 787.82055,118.552503 C787.863195,118.424646 787.928495,118.298151 788.016452,118.173014 C788.104408,118.047878 788.212353,117.928183 788.340289,117.813928 C788.468226,117.699673 788.617483,117.599021 788.788065,117.51197 C788.388263,117.283459 788.07509,116.980143 787.848536,116.602013 C787.621982,116.223883 787.508706,115.781831 787.508706,115.275843 C787.508706,114.87323 787.584668,114.507347 787.736592,114.178183 C787.888517,113.849019 788.100408,113.568826 788.372273,113.337595 C788.644138,113.106364 788.967972,112.928183 789.343786,112.803047 C789.719599,112.67791 790.131388,112.615343 790.579166,112.615343 Z M793.105898,121.470076 C793.105898,121.263329 793.049927,121.097389 792.937982,120.972252 C792.826038,120.847116 792.674116,120.750544 792.482211,120.682535 C792.290306,120.614526 792.069086,120.5642 791.818544,120.531556 C791.568002,120.498912 791.304137,120.475789 791.026941,120.462187 C790.749746,120.448585 790.467223,120.433624 790.179366,120.417301 C789.891509,120.400979 789.616983,120.371056 789.35578,120.32753 C789.051931,120.474429 788.80539,120.653971 788.616151,120.866159 C788.426911,121.078347 788.332293,121.331337 788.332293,121.625136 C788.332293,121.810121 788.378936,121.982861 788.472223,122.143362 C788.56551,122.303864 788.708104,122.4426 788.900008,122.559576 C789.091913,122.676551 789.333123,122.769042 789.623645,122.837051 C789.914168,122.90506 790.256659,122.939064 790.65113,122.939064 C791.034939,122.939064 791.378763,122.9037 791.682612,122.832971 C791.986461,122.762241 792.243663,122.661589 792.454225,122.531012 C792.664787,122.400435 792.826038,122.245376 792.937982,122.065832 C793.049927,121.886289 793.105898,121.687705 793.105898,121.470076 Z M790.579166,116.981502 C790.867023,116.981502 791.121559,116.940697 791.342783,116.859086 C791.564006,116.777475 791.749245,116.663222 791.898504,116.516322 C792.047763,116.369423 792.159706,116.193962 792.234335,115.989935 C792.308965,115.785908 792.346279,115.561481 792.346279,115.316649 C792.346279,114.810661 792.19569,114.408054 791.894506,114.108814 C791.593322,113.809574 791.15488,113.659956 790.579166,113.659956 C790.008783,113.659956 789.573006,113.809574 789.271822,114.108814 C788.970638,114.408054 788.820048,114.810661 788.820048,115.316649 C788.820048,115.561481 788.858695,115.785908 788.93599,115.989935 C789.013285,116.193962 789.126561,116.369423 789.27582,116.516322 C789.425079,116.663222 789.608985,116.777475 789.827543,116.859086 C790.046101,116.940697 790.29664,116.981502 790.579166,116.981502 Z M797.023932,121.021219 L797.023932,112.754081 L797.871507,112.754081 C798.074073,112.754081 798.202008,112.854732 798.255314,113.056039 L798.359262,113.904788 C798.657781,113.529378 798.992276,113.221982 799.362759,112.98259 C799.733241,112.743198 800.163688,112.623504 800.654111,112.623504 C801.203171,112.623504 801.646944,112.778562 801.985443,113.088683 C802.323941,113.398805 802.567817,113.817734 802.717076,114.345484 C802.82902,114.046244 802.976944,113.787814 803.160853,113.570185 C803.344762,113.352556 803.551323,113.173015 803.780542,113.031556 C804.009762,112.890097 804.253637,112.786725 804.512175,112.721436 C804.770713,112.656148 805.033246,112.623504 805.29978,112.623504 C805.726235,112.623504 806.10604,112.692872 806.439208,112.83161 C806.772376,112.970349 807.054898,113.173013 807.286783,113.439608 C807.518668,113.706204 807.69591,114.034002 807.818516,114.423014 C807.941122,114.812026 808.002424,115.256798 808.002424,115.757345 L808.002424,121.021219 L806.579138,121.021219 L806.579138,115.757345 C806.579138,115.109899 806.440542,114.618881 806.163347,114.284276 C805.886151,113.949672 805.48369,113.782372 804.955952,113.782372 C804.721402,113.782372 804.498849,113.824537 804.288287,113.908868 C804.077725,113.9932 803.892487,114.116974 803.732566,114.280196 C803.572646,114.443418 803.446044,114.648802 803.352757,114.896355 C803.25947,115.143908 803.212827,115.430902 803.212827,115.757345 L803.212827,121.021219 L801.789541,121.021219 L801.789541,115.757345 C801.789541,115.093577 801.658941,114.598478 801.397738,114.272035 C801.136534,113.945591 800.755396,113.782372 800.254311,113.782372 C799.902486,113.782372 799.575987,113.878944 799.274803,114.072089 C798.973619,114.265235 798.69776,114.527746 798.447218,114.85963 L798.447218,121.021219 L797.023932,121.021219 Z M814.359234,112.623504 C814.844327,112.623504 815.292098,112.706474 815.70256,112.872416 C816.113023,113.038358 816.467508,113.277746 816.766027,113.590588 C817.064545,113.903429 817.297759,114.289715 817.465676,114.749456 C817.633592,115.209197 817.717549,115.732859 817.717549,116.320457 C817.717549,116.548967 817.693562,116.701305 817.645585,116.777476 C817.597609,116.853646 817.506989,116.89173 817.373722,116.89173 L811.984426,116.89173 C811.995087,117.41404 812.064385,117.868333 812.192322,118.254625 C812.320258,118.640916 812.496168,118.963274 812.720057,119.221708 C812.943946,119.480143 813.210476,119.673286 813.519656,119.801143 C813.828835,119.929 814.175325,119.992927 814.559134,119.992927 C814.91629,119.992927 815.224132,119.950762 815.482671,119.866431 C815.741209,119.7821 815.963762,119.690969 816.150336,119.593036 C816.33691,119.495103 816.49283,119.403972 816.618101,119.319641 C816.743372,119.23531 816.851317,119.193145 816.941939,119.193145 C817.059214,119.193145 817.149834,119.23939 817.213802,119.331882 L817.613602,119.86235 C817.437689,120.079979 817.22713,120.269042 816.981918,120.429543 C816.736707,120.590044 816.474175,120.72198 816.194314,120.825354 C815.914453,120.928727 815.625267,121.006257 815.326749,121.057943 C815.028231,121.10963 814.732382,121.135473 814.439194,121.135473 C813.879472,121.135473 813.363736,121.038902 812.891971,120.845756 C812.420205,120.652611 812.012414,120.369697 811.668584,119.997008 C811.324755,119.624318 811.056892,119.163224 810.864988,118.613711 C810.673083,118.064197 810.577132,117.433083 810.577132,116.720348 C810.577132,116.143632 810.663754,115.605008 810.837002,115.104461 C811.010249,114.603915 811.259455,114.170024 811.584627,113.802775 C811.909798,113.435526 812.306928,113.147172 812.776029,112.937704 C813.245129,112.728236 813.772859,112.623504 814.359234,112.623504 Z M814.391218,113.692601 C813.70356,113.692601 813.162503,113.895265 812.768033,114.300598 C812.373562,114.705932 812.128354,115.267679 812.032402,115.985854 L816.438191,115.985854 C816.438191,115.648529 816.392881,115.339773 816.302259,115.059576 C816.211638,114.779378 816.078373,114.53727 815.90246,114.333243 C815.726547,114.129216 815.511991,113.971437 815.258783,113.859902 C815.005575,113.748367 814.71639,113.692601 814.391218,113.692601 Z M820.532137,121.021219 L820.532137,112.754081 L821.379712,112.754081 C821.582278,112.754081 821.710212,112.854732 821.763519,113.056039 L821.875463,113.953754 C822.227288,113.556581 822.620421,113.235583 823.054871,112.990751 C823.489322,112.745918 823.991732,112.623504 824.562115,112.623504 C825.004562,112.623504 825.395029,112.698313 825.733527,112.847933 C826.072026,112.997552 826.354548,113.209737 826.581102,113.484494 C826.807656,113.759251 826.979568,114.08977 827.096843,114.476061 C827.214118,114.862352 827.272755,115.289443 827.272755,115.757345 L827.272755,121.021219 L825.849469,121.021219 L825.849469,115.757345 C825.849469,115.131662 825.709541,114.646084 825.42968,114.300598 C825.149819,113.955113 824.722038,113.782372 824.146324,113.782372 C823.7252,113.782372 823.332068,113.885744 822.966916,114.092492 C822.601764,114.299239 822.264603,114.579432 821.955423,114.933079 L821.955423,121.021219 L820.532137,121.021219 Z M832.877943,121.151795 C832.238261,121.151795 831.746512,120.969534 831.402683,120.605005 C831.058854,120.240477 830.886942,119.715455 830.886942,119.029924 L830.886942,113.970076 L829.911431,113.970076 C829.82614,113.970076 829.754177,113.944233 829.69554,113.892546 C829.636902,113.840859 829.607584,113.76061 829.607584,113.651795 L829.607584,113.072361 L830.934918,112.900979 L831.262753,110.346572 C831.273415,110.264962 831.308063,110.198314 831.366701,110.146627 C831.425339,110.09494 831.499967,110.069097 831.590589,110.069097 L832.310228,110.069097 L832.310228,112.917301 L834.629064,112.917301 L834.629064,113.970076 L832.310228,113.970076 L832.310228,118.931991 C832.310228,119.280198 832.392852,119.538628 832.558103,119.707291 C832.723354,119.875953 832.936579,119.960283 833.197782,119.960283 C833.347041,119.960283 833.476309,119.939881 833.585588,119.899075 C833.694867,119.85827 833.789485,119.813384 833.869445,119.764418 C833.949406,119.715451 834.017371,119.670566 834.073343,119.629761 C834.129315,119.588955 834.178623,119.568553 834.221269,119.568553 C834.295898,119.568553 834.362531,119.614798 834.421168,119.707291 L834.83696,120.400979 C834.591748,120.63493 834.2959,120.818552 833.949405,120.95185 C833.602911,121.085148 833.24576,121.151795 832.877943,121.151795 Z M840.594071,112.623504 C841.079164,112.623504 841.526934,112.706474 841.937397,112.872416 C842.34786,113.038358 842.702345,113.277746 843.000864,113.590588 C843.299382,113.903429 843.532596,114.289715 843.700513,114.749456 C843.868429,115.209197 843.952386,115.732859 843.952386,116.320457 C843.952386,116.548967 843.928399,116.701305 843.880422,116.777476 C843.832446,116.853646 843.741826,116.89173 843.608559,116.89173 L838.219263,116.89173 C838.229924,117.41404 838.299222,117.868333 838.427158,118.254625 C838.555095,118.640916 838.731005,118.963274 838.954894,119.221708 C839.178782,119.480143 839.445313,119.673286 839.754493,119.801143 C840.063672,119.929 840.410162,119.992927 840.793971,119.992927 C841.151127,119.992927 841.458969,119.950762 841.717508,119.866431 C841.976046,119.7821 842.198599,119.690969 842.385173,119.593036 C842.571747,119.495103 842.727667,119.403972 842.852938,119.319641 C842.978209,119.23531 843.086154,119.193145 843.176775,119.193145 C843.29405,119.193145 843.384671,119.23939 843.448639,119.331882 L843.848438,119.86235 C843.672526,120.079979 843.461967,120.269042 843.216755,120.429543 C842.971544,120.590044 842.709012,120.72198 842.429151,120.825354 C842.14929,120.928727 841.860104,121.006257 841.561586,121.057943 C841.263067,121.10963 840.967219,121.135473 840.674031,121.135473 C840.114309,121.135473 839.598573,121.038902 839.126807,120.845756 C838.655042,120.652611 838.24725,120.369697 837.903421,119.997008 C837.559592,119.624318 837.291729,119.163224 837.099824,118.613711 C836.90792,118.064197 836.811969,117.433083 836.811969,116.720348 C836.811969,116.143632 836.898591,115.605008 837.071839,115.104461 C837.245086,114.603915 837.494292,114.170024 837.819463,113.802775 C838.144635,113.435526 838.541765,113.147172 839.010866,112.937704 C839.479966,112.728236 840.007696,112.623504 840.594071,112.623504 Z M840.626055,113.692601 C839.938397,113.692601 839.39734,113.895265 839.00287,114.300598 C838.608399,114.705932 838.363191,115.267679 838.267239,115.985854 L842.673028,115.985854 C842.673028,115.648529 842.627718,115.339773 842.537096,115.059576 C842.446475,114.779378 842.31321,114.53727 842.137297,114.333243 C841.961384,114.129216 841.746827,113.971437 841.49362,113.859902 C841.240412,113.748367 840.951227,113.692601 840.626055,113.692601 Z M852.468114,121.021219 C852.265548,121.021219 852.137613,120.920567 852.084306,120.71926 L851.95637,119.715452 C851.609876,120.145269 851.214078,120.489389 850.768966,120.747824 C850.323854,121.006258 849.813448,121.135473 849.237734,121.135473 C848.773965,121.135473 848.352847,121.044343 847.974368,120.862078 C847.59589,120.679814 847.273388,120.411862 847.006854,120.058215 C846.740319,119.704568 846.535091,119.263876 846.391163,118.736126 C846.247234,118.208376 846.175271,117.601744 846.175271,116.916213 C846.175271,116.306852 846.25523,115.739665 846.415151,115.214635 C846.575071,114.689606 846.80562,114.233952 847.106804,113.847661 C847.407987,113.461369 847.774466,113.158053 848.206252,112.937704 C848.638037,112.717355 849.128453,112.607182 849.677514,112.607182 C850.173267,112.607182 850.597051,112.692872 850.948876,112.864255 C851.300701,113.035637 851.615207,113.276386 851.892402,113.586507 L851.892402,109 L853.315688,109 L853.315688,121.021219 L852.468114,121.021219 Z M849.709498,119.960283 C850.173267,119.960283 850.579726,119.85147 850.928886,119.633841 C851.278046,119.416212 851.599215,119.108816 851.892402,118.711643 L851.892402,114.712731 C851.631199,114.353643 851.344679,114.102014 851.032834,113.957835 C850.720989,113.813655 850.375832,113.741567 849.997353,113.741567 C849.240396,113.741567 848.65936,114.016319 848.254228,114.565832 C847.849096,115.115346 847.646533,115.898798 847.646533,116.916213 C847.646533,117.454845 847.691843,117.915939 847.782465,118.29951 C847.873086,118.683081 848.006351,118.998639 848.182264,119.246192 C848.358177,119.493744 848.574066,119.674646 848.829939,119.788901 C849.085812,119.903156 849.378995,119.960283 849.709498,119.960283 Z M860.791937,121.021219 L860.791937,112.754081 L861.607528,112.754081 C861.762118,112.754081 861.86873,112.784004 861.927367,112.843852 C861.986005,112.9037 862.025985,113.007072 862.047307,113.153972 L862.143259,114.443417 C862.420455,113.8667 862.762946,113.416487 863.170744,113.092764 C863.578541,112.769041 864.056963,112.607182 864.606023,112.607182 C864.829912,112.607182 865.032475,112.633025 865.213719,112.684712 C865.394962,112.736399 865.562876,112.808487 865.717466,112.900979 L865.533558,113.986398 C865.496243,114.122416 865.413619,114.190424 865.285682,114.190424 C865.211053,114.190424 865.096445,114.164581 864.941855,114.112894 C864.787265,114.061208 864.571376,114.035365 864.29418,114.035365 C863.798426,114.035365 863.383972,114.182262 863.050804,114.476061 C862.717636,114.76986 862.439112,115.19695 862.215223,115.757345 L862.215223,121.021219 L860.791937,121.021219 Z M871.442593,112.623504 C871.927686,112.623504 872.375456,112.706474 872.785919,112.872416 C873.196382,113.038358 873.550867,113.277746 873.849386,113.590588 C874.147904,113.903429 874.381118,114.289715 874.549035,114.749456 C874.716951,115.209197 874.800908,115.732859 874.800908,116.320457 C874.800908,116.548967 874.776921,116.701305 874.728944,116.777476 C874.680968,116.853646 874.590348,116.89173 874.457081,116.89173 L869.067785,116.89173 C869.078446,117.41404 869.147744,117.868333 869.27568,118.254625 C869.403617,118.640916 869.579527,118.963274 869.803416,119.221708 C870.027304,119.480143 870.293835,119.673286 870.603015,119.801143 C870.912194,119.929 871.258684,119.992927 871.642493,119.992927 C871.999649,119.992927 872.307491,119.950762 872.56603,119.866431 C872.824568,119.7821 873.047121,119.690969 873.233695,119.593036 C873.420269,119.495103 873.576189,119.403972 873.70146,119.319641 C873.826731,119.23531 873.934676,119.193145 874.025297,119.193145 C874.142572,119.193145 874.233193,119.23939 874.297161,119.331882 L874.69696,119.86235 C874.521048,120.079979 874.310489,120.269042 874.065277,120.429543 C873.820066,120.590044 873.557534,120.72198 873.277673,120.825354 C872.997812,120.928727 872.708626,121.006257 872.410108,121.057943 C872.111589,121.10963 871.815741,121.135473 871.522553,121.135473 C870.962831,121.135473 870.447095,121.038902 869.975329,120.845756 C869.503564,120.652611 869.095772,120.369697 868.751943,119.997008 C868.408114,119.624318 868.140251,119.163224 867.948346,118.613711 C867.756442,118.064197 867.660491,117.433083 867.660491,116.720348 C867.660491,116.143632 867.747113,115.605008 867.920361,115.104461 C868.093608,114.603915 868.342814,114.170024 868.667985,113.802775 C868.993157,113.435526 869.390287,113.147172 869.859388,112.937704 C870.328488,112.728236 870.856218,112.623504 871.442593,112.623504 Z M871.474577,113.692601 C870.786919,113.692601 870.245862,113.895265 869.851392,114.300598 C869.456921,114.705932 869.211713,115.267679 869.115761,115.985854 L873.52155,115.985854 C873.52155,115.648529 873.47624,115.339773 873.385618,115.059576 C873.294997,114.779378 873.161732,114.53727 872.985819,114.333243 C872.809906,114.129216 872.595349,113.971437 872.342142,113.859902 C872.088934,113.748367 871.799749,113.692601 871.474577,113.692601 Z M883.564511,121.021219 L882.932828,121.021219 C882.79423,121.021219 882.682288,120.999456 882.596997,120.95593 C882.511706,120.912405 882.455734,120.819914 882.429081,120.678455 L882.269161,119.911317 C882.055934,120.107183 881.84804,120.282643 881.645474,120.437704 C881.442908,120.592765 881.229684,120.72334 881.005795,120.829434 C880.781906,120.935528 880.543362,121.015778 880.290154,121.070185 C880.036947,121.124592 879.755757,121.151795 879.446577,121.151795 C879.132067,121.151795 878.837551,121.10691 878.563021,121.017138 C878.28849,120.927366 878.049946,120.79271 877.84738,120.613166 C877.644814,120.433623 877.483563,120.206476 877.363622,119.931719 C877.243682,119.656963 877.183713,119.331884 877.183713,118.956474 C877.183713,118.630031 877.271668,118.315834 877.44758,118.013874 C877.623493,117.711914 877.907348,117.443962 878.299153,117.210011 C878.690958,116.97606 879.204029,116.784277 879.838381,116.634657 C880.472732,116.485037 881.248335,116.399347 882.165213,116.377584 L882.165213,115.732862 C882.165213,115.090856 882.030615,114.605279 881.761416,114.276115 C881.492216,113.946952 881.093754,113.782372 880.566016,113.782372 C880.219521,113.782372 879.92767,113.827257 879.690455,113.917029 C879.453239,114.006801 879.248011,114.107453 879.074764,114.218988 C878.901517,114.330523 878.75226,114.431175 878.626989,114.520947 C878.501717,114.610719 878.377781,114.655604 878.255175,114.655604 C878.159223,114.655604 878.075266,114.629761 878.003301,114.578074 C877.931337,114.526387 877.874033,114.46246 877.831388,114.386289 L877.575516,113.92111 C878.023294,113.480411 878.505713,113.151252 879.02279,112.933624 C879.539866,112.715995 880.112907,112.607182 880.741927,112.607182 C881.195036,112.607182 881.597496,112.683351 881.949322,112.835691 C882.301147,112.988031 882.596995,113.200216 882.836876,113.472252 C883.076757,113.744289 883.257998,114.073447 883.380603,114.459739 C883.503209,114.84603 883.564511,115.2704 883.564511,115.732862 L883.564511,121.021219 Z M879.870365,120.131665 C880.120907,120.131665 880.350123,120.105822 880.55802,120.054135 C880.765916,120.002448 880.961816,119.928999 881.145725,119.833787 C881.329633,119.738574 881.505543,119.62296 881.67346,119.486942 C881.841377,119.350924 882.005293,119.195866 882.165213,119.021763 L882.165213,117.299782 C881.509539,117.321545 880.952491,117.374592 880.494052,117.458923 C880.035613,117.543254 879.66247,117.653427 879.374613,117.789445 C879.086756,117.925463 878.87753,118.085962 878.746928,118.270947 C878.616327,118.455931 878.551027,118.662676 878.551027,118.891186 C878.551027,119.108815 878.585676,119.296517 878.654975,119.454298 C878.724273,119.612079 878.817559,119.741294 878.934834,119.841948 C879.052109,119.942601 879.190705,120.01605 879.350625,120.062296 C879.510546,120.108542 879.683791,120.131665 879.870365,120.131665 Z M888.306132,109 L888.306132,121.021219 L886.882846,121.021219 L886.882846,109 L888.306132,109 Z M893.399577,112.754081 L893.399577,121.021219 L891.976291,121.021219 L891.976291,112.754081 L893.399577,112.754081 Z M893.719416,110.158868 C893.719416,110.300327 893.69143,110.432263 893.635458,110.554679 C893.579486,110.677095 893.504857,110.785908 893.411571,110.881121 C893.318284,110.976333 893.210339,111.051142 893.087733,111.10555 C892.965127,111.159957 892.834527,111.18716 892.69593,111.18716 C892.557332,111.18716 892.428065,111.159957 892.308124,111.10555 C892.188184,111.051142 892.081572,110.976333 891.988285,110.881121 C891.894998,110.785908 891.821702,110.677095 891.768395,110.554679 C891.715088,110.432263 891.688435,110.300327 891.688435,110.158868 C891.688435,110.01741 891.715088,109.882754 891.768395,109.754897 C891.821702,109.62704 891.894998,109.515506 891.988285,109.420294 C892.081572,109.325081 892.188184,109.250272 892.308124,109.195865 C892.428065,109.141458 892.557332,109.114255 892.69593,109.114255 C892.834527,109.114255 892.965127,109.141458 893.087733,109.195865 C893.210339,109.250272 893.318284,109.325081 893.411571,109.420294 C893.504857,109.515506 893.579486,109.62704 893.635458,109.754897 C893.69143,109.882754 893.719416,110.01741 893.719416,110.158868 Z M899.364584,121.151795 C898.724901,121.151795 898.233153,120.969534 897.889324,120.605005 C897.545495,120.240477 897.373583,119.715455 897.373583,119.029924 L897.373583,113.970076 L896.398072,113.970076 C896.312781,113.970076 896.240818,113.944233 896.18218,113.892546 C896.123543,113.840859 896.094225,113.76061 896.094225,113.651795 L896.094225,113.072361 L897.421559,112.900979 L897.749394,110.346572 C897.760055,110.264962 897.794704,110.198314 897.853342,110.146627 C897.911979,110.09494 897.986608,110.069097 898.07723,110.069097 L898.796868,110.069097 L898.796868,112.917301 L901.115705,112.917301 L901.115705,113.970076 L898.796868,113.970076 L898.796868,118.931991 C898.796868,119.280198 898.879493,119.538628 899.044744,119.707291 C899.209995,119.875953 899.42322,119.960283 899.684423,119.960283 C899.833682,119.960283 899.96295,119.939881 900.072229,119.899075 C900.181508,119.85827 900.276126,119.813384 900.356086,119.764418 C900.436046,119.715451 900.504012,119.670566 900.559984,119.629761 C900.615956,119.588955 900.665264,119.568553 900.70791,119.568553 C900.782539,119.568553 900.849172,119.614798 900.907809,119.707291 L901.323601,120.400979 C901.078389,120.63493 900.782541,120.818552 900.436046,120.95185 C900.089551,121.085148 899.732401,121.151795 899.364584,121.151795 Z M906.249129,123.461371 C906.201153,123.570186 906.141184,123.657236 906.06922,123.722524 C905.997255,123.787813 905.886645,123.820457 905.737386,123.820457 L904.681916,123.820457 L906.161173,120.539717 L902.81885,112.754081 L904.050233,112.754081 C904.172838,112.754081 904.268789,112.785364 904.338088,112.847933 C904.407387,112.910501 904.458028,112.979869 904.490012,113.056039 L906.656925,118.262786 C906.704901,118.382482 906.746213,118.502176 906.780863,118.621872 C906.815512,118.741568 906.846163,118.863982 906.872816,118.989119 C906.910131,118.863982 906.947445,118.741568 906.98476,118.621872 C907.022075,118.502176 907.06472,118.379761 907.112696,118.254625 L909.215641,113.056039 C909.247625,112.968988 909.302264,112.896899 909.379559,112.839771 C909.456854,112.782644 909.540811,112.754081 909.631432,112.754081 L910.766863,112.754081 L906.249129,123.461371 Z M918.730867,109 L918.730867,121.021219 L917.307581,121.021219 L917.307581,109 L918.730867,109 Z M925.447497,112.623504 C925.932589,112.623504 926.38036,112.706474 926.790823,112.872416 C927.201285,113.038358 927.555771,113.277746 927.854289,113.590588 C928.152808,113.903429 928.386022,114.289715 928.553938,114.749456 C928.721855,115.209197 928.805812,115.732859 928.805812,116.320457 C928.805812,116.548967 928.781824,116.701305 928.733848,116.777476 C928.685872,116.853646 928.595251,116.89173 928.461984,116.89173 L923.072688,116.89173 C923.08335,117.41404 923.152648,117.868333 923.280584,118.254625 C923.40852,118.640916 923.58443,118.963274 923.808319,119.221708 C924.032208,119.480143 924.298738,119.673286 924.607918,119.801143 C924.917098,119.929 925.263587,119.992927 925.647396,119.992927 C926.004552,119.992927 926.312395,119.950762 926.570933,119.866431 C926.829471,119.7821 927.052024,119.690969 927.238598,119.593036 C927.425172,119.495103 927.581092,119.403972 927.706363,119.319641 C927.831634,119.23531 927.939579,119.193145 928.030201,119.193145 C928.147476,119.193145 928.238096,119.23939 928.302064,119.331882 L928.701864,119.86235 C928.525951,120.079979 928.315392,120.269042 928.070181,120.429543 C927.824969,120.590044 927.562437,120.72198 927.282576,120.825354 C927.002715,120.928727 926.71353,121.006257 926.415011,121.057943 C926.116493,121.10963 925.820644,121.135473 925.527457,121.135473 C924.967735,121.135473 924.451999,121.038902 923.980233,120.845756 C923.508467,120.652611 923.100676,120.369697 922.756847,119.997008 C922.413018,119.624318 922.145155,119.163224 921.95325,118.613711 C921.761345,118.064197 921.665394,117.433083 921.665394,116.720348 C921.665394,116.143632 921.752017,115.605008 921.925264,115.104461 C922.098511,114.603915 922.347717,114.170024 922.672889,113.802775 C922.998061,113.435526 923.395191,113.147172 923.864291,112.937704 C924.333391,112.728236 924.861121,112.623504 925.447497,112.623504 Z M925.479481,113.692601 C924.791822,113.692601 924.250766,113.895265 923.856295,114.300598 C923.461824,114.705932 923.216617,115.267679 923.120664,115.985854 L927.526454,115.985854 C927.526454,115.648529 927.481143,115.339773 927.390522,115.059576 C927.2999,114.779378 927.166635,114.53727 926.990722,114.333243 C926.81481,114.129216 926.600253,113.971437 926.347045,113.859902 C926.093838,113.748367 925.804652,113.692601 925.479481,113.692601 Z M937.569415,121.021219 L936.937732,121.021219 C936.799134,121.021219 936.687191,120.999456 936.6019,120.95593 C936.516609,120.912405 936.460638,120.819914 936.433984,120.678455 L936.274065,119.911317 C936.060837,120.107183 935.852944,120.282643 935.650378,120.437704 C935.447811,120.592765 935.234587,120.72334 935.010698,120.829434 C934.78681,120.935528 934.548265,121.015778 934.295058,121.070185 C934.04185,121.124592 933.760661,121.151795 933.451481,121.151795 C933.13697,121.151795 932.842454,121.10691 932.567924,121.017138 C932.293394,120.927366 932.054849,120.79271 931.852283,120.613166 C931.649717,120.433623 931.488466,120.206476 931.368526,119.931719 C931.248585,119.656963 931.188616,119.331884 931.188616,118.956474 C931.188616,118.630031 931.276571,118.315834 931.452484,118.013874 C931.628396,117.711914 931.912251,117.443962 932.304057,117.210011 C932.695862,116.97606 933.208933,116.784277 933.843284,116.634657 C934.477636,116.485037 935.253239,116.399347 936.170117,116.377584 L936.170117,115.732862 C936.170117,115.090856 936.035519,114.605279 935.766319,114.276115 C935.49712,113.946952 935.098657,113.782372 934.570919,113.782372 C934.224425,113.782372 933.932574,113.827257 933.695358,113.917029 C933.458143,114.006801 933.252915,114.107453 933.079667,114.218988 C932.90642,114.330523 932.757163,114.431175 932.631892,114.520947 C932.506621,114.610719 932.382684,114.655604 932.260079,114.655604 C932.164126,114.655604 932.080169,114.629761 932.008205,114.578074 C931.936241,114.526387 931.878937,114.46246 931.836291,114.386289 L931.58042,113.92111 C932.028197,113.480411 932.510617,113.151252 933.027693,112.933624 C933.54477,112.715995 934.11781,112.607182 934.746831,112.607182 C935.199939,112.607182 935.6024,112.683351 935.954225,112.835691 C936.30605,112.988031 936.601899,113.200216 936.84178,113.472252 C937.081661,113.744289 937.262901,114.073447 937.385507,114.459739 C937.508113,114.84603 937.569415,115.2704 937.569415,115.732862 L937.569415,121.021219 Z M933.875268,120.131665 C934.12581,120.131665 934.355026,120.105822 934.562923,120.054135 C934.77082,120.002448 934.96672,119.928999 935.150628,119.833787 C935.334537,119.738574 935.510447,119.62296 935.678363,119.486942 C935.84628,119.350924 936.010196,119.195866 936.170117,119.021763 L936.170117,117.299782 C935.514442,117.321545 934.957394,117.374592 934.498955,117.458923 C934.040516,117.543254 933.667374,117.653427 933.379517,117.789445 C933.09166,117.925463 932.882434,118.085962 932.751832,118.270947 C932.62123,118.455931 932.55593,118.662676 932.55593,118.891186 C932.55593,119.108815 932.590579,119.296517 932.659878,119.454298 C932.729177,119.612079 932.822462,119.741294 932.939738,119.841948 C933.057013,119.942601 933.195608,120.01605 933.355529,120.062296 C933.515449,120.108542 933.688694,120.131665 933.875268,120.131665 Z M940.72783,121.021219 L940.72783,112.754081 L941.543421,112.754081 C941.698011,112.754081 941.804623,112.784004 941.86326,112.843852 C941.921898,112.9037 941.961877,113.007072 941.9832,113.153972 L942.079152,114.443417 C942.356348,113.8667 942.698839,113.416487 943.106636,113.092764 C943.514434,112.769041 943.992856,112.607182 944.541916,112.607182 C944.765805,112.607182 944.968368,112.633025 945.149611,112.684712 C945.330855,112.736399 945.498769,112.808487 945.653359,112.900979 L945.469451,113.986398 C945.432136,114.122416 945.349512,114.190424 945.221575,114.190424 C945.146946,114.190424 945.032338,114.164581 944.877748,114.112894 C944.723158,114.061208 944.507268,114.035365 944.230073,114.035365 C943.734319,114.035365 943.319864,114.182262 942.986697,114.476061 C942.653529,114.76986 942.375005,115.19695 942.151116,115.757345 L942.151116,121.021219 L940.72783,121.021219 Z M948.172095,121.021219 L948.172095,112.754081 L949.01967,112.754081 C949.222236,112.754081 949.35017,112.854732 949.403477,113.056039 L949.515421,113.953754 C949.867246,113.556581 950.260378,113.235583 950.694829,112.990751 C951.12928,112.745918 951.631689,112.623504 952.202073,112.623504 C952.64452,112.623504 953.034987,112.698313 953.373485,112.847933 C953.711984,112.997552 953.994506,113.209737 954.22106,113.484494 C954.447614,113.759251 954.619526,114.08977 954.736801,114.476061 C954.854076,114.862352 954.912713,115.289443 954.912713,115.757345 L954.912713,121.021219 L953.489427,121.021219 L953.489427,115.757345 C953.489427,115.131662 953.349499,114.646084 953.069638,114.300598 C952.789777,113.955113 952.361995,113.782372 951.786281,113.782372 C951.365157,113.782372 950.972025,113.885744 950.606873,114.092492 C950.241721,114.299239 949.90456,114.579432 949.595381,114.933079 L949.595381,121.021219 L948.172095,121.021219 Z M959.646338,112.754081 L959.646338,121.021219 L958.223052,121.021219 L958.223052,112.754081 L959.646338,112.754081 Z M959.966177,110.158868 C959.966177,110.300327 959.938192,110.432263 959.882219,110.554679 C959.826247,110.677095 959.751619,110.785908 959.658332,110.881121 C959.565045,110.976333 959.4571,111.051142 959.334494,111.10555 C959.211888,111.159957 959.081289,111.18716 958.942691,111.18716 C958.804093,111.18716 958.674826,111.159957 958.554885,111.10555 C958.434945,111.051142 958.328333,110.976333 958.235046,110.881121 C958.141759,110.785908 958.068463,110.677095 958.015156,110.554679 C957.961849,110.432263 957.935196,110.300327 957.935196,110.158868 C957.935196,110.01741 957.961849,109.882754 958.015156,109.754897 C958.068463,109.62704 958.141759,109.515506 958.235046,109.420294 C958.328333,109.325081 958.434945,109.250272 958.554885,109.195865 C958.674826,109.141458 958.804093,109.114255 958.942691,109.114255 C959.081289,109.114255 959.211888,109.141458 959.334494,109.195865 C959.4571,109.250272 959.565045,109.325081 959.658332,109.420294 C959.751619,109.515506 959.826247,109.62704 959.882219,109.754897 C959.938192,109.882754 959.966177,110.01741 959.966177,110.158868 Z M963.156576,121.021219 L963.156576,112.754081 L964.004151,112.754081 C964.206717,112.754081 964.334652,112.854732 964.387959,113.056039 L964.499902,113.953754 C964.851728,113.556581 965.24486,113.235583 965.679311,112.990751 C966.113762,112.745918 966.616171,112.623504 967.186554,112.623504 C967.629001,112.623504 968.019468,112.698313 968.357967,112.847933 C968.696465,112.997552 968.978987,113.209737 969.205541,113.484494 C969.432096,113.759251 969.604008,114.08977 969.721283,114.476061 C969.838558,114.862352 969.897194,115.289443 969.897194,115.757345 L969.897194,121.021219 L968.473909,121.021219 L968.473909,115.757345 C968.473909,115.131662 968.33398,114.646084 968.054119,114.300598 C967.774258,113.955113 967.346477,113.782372 966.770763,113.782372 C966.349639,113.782372 965.956507,113.885744 965.591355,114.092492 C965.226203,114.299239 964.889042,114.579432 964.579862,114.933079 L964.579862,121.021219 L963.156576,121.021219 Z M975.774246,112.615343 C976.126071,112.615343 976.455236,112.654787 976.76175,112.733678 C977.068265,112.812568 977.346789,112.928182 977.597331,113.080522 L979.796228,113.080522 L979.796228,113.619151 C979.796228,113.798695 979.684285,113.912949 979.460396,113.961915 L978.540858,114.092492 C978.722101,114.446139 978.812721,114.840585 978.812721,115.275843 C978.812721,115.678457 978.73676,116.04434 978.584835,116.373504 C978.432911,116.702668 978.222352,116.984221 977.953152,117.218172 C977.683953,117.452123 977.364116,117.631664 976.993634,117.756801 C976.623151,117.881938 976.216693,117.944505 975.774246,117.944505 C975.395767,117.944505 975.038616,117.898259 974.702783,117.805767 C974.532201,117.914582 974.402934,118.031555 974.314978,118.156692 C974.227022,118.281829 974.183044,118.404243 974.183044,118.523939 C974.183044,118.719805 974.260338,118.868063 974.414928,118.968716 C974.569518,119.069369 974.774746,119.141458 975.030619,119.184984 C975.286492,119.228509 975.57701,119.255713 975.902181,119.266594 C976.227353,119.277476 976.559183,119.295158 976.897682,119.319641 C977.236181,119.344124 977.568011,119.386289 977.893183,119.446137 C978.218354,119.505985 978.508872,119.603917 978.764745,119.739935 C979.020618,119.875953 979.225846,120.063655 979.380436,120.303047 C979.535026,120.542439 979.61232,120.852555 979.61232,121.233406 C979.61232,121.587053 979.525698,121.929813 979.35245,122.261697 C979.179203,122.593582 978.929997,122.888736 978.604825,123.147171 C978.279654,123.405605 977.882524,123.61235 977.413423,123.76741 C976.944323,123.922471 976.413928,124 975.822222,124 C975.230516,124 974.712114,123.940153 974.267002,123.820457 C973.82189,123.700761 973.452745,123.540262 973.159558,123.338955 C972.86637,123.137649 972.646482,122.905061 972.499889,122.641186 C972.353295,122.377311 972.279999,122.101198 972.279999,121.81284 C972.279999,121.404786 972.406601,121.057945 972.659808,120.772307 C972.913016,120.486669 973.260838,120.259522 973.703285,120.09086 C973.474065,119.982045 973.291492,119.836508 973.15556,119.654244 C973.019627,119.47198 972.951662,119.228511 972.951662,118.92383 C972.951662,118.804134 972.972984,118.68036 973.01563,118.552503 C973.058275,118.424646 973.123575,118.298151 973.211531,118.173014 C973.299488,118.047878 973.407433,117.928183 973.535369,117.813928 C973.663305,117.699673 973.812562,117.599021 973.983144,117.51197 C973.583343,117.283459 973.27017,116.980143 973.043616,116.602013 C972.817062,116.223883 972.703786,115.781831 972.703786,115.275843 C972.703786,114.87323 972.779747,114.507347 972.931672,114.178183 C973.083596,113.849019 973.295488,113.568826 973.567353,113.337595 C973.839218,113.106364 974.163052,112.928183 974.538866,112.803047 C974.914679,112.67791 975.326468,112.615343 975.774246,112.615343 Z M978.300978,121.470076 C978.300978,121.263329 978.245007,121.097389 978.133062,120.972252 C978.021118,120.847116 977.869196,120.750544 977.677291,120.682535 C977.485386,120.614526 977.264166,120.5642 977.013624,120.531556 C976.763082,120.498912 976.499217,120.475789 976.222021,120.462187 C975.944825,120.448585 975.662303,120.433624 975.374446,120.417301 C975.086589,120.400979 974.812063,120.371056 974.550859,120.32753 C974.24701,120.474429 974.00047,120.653971 973.811231,120.866159 C973.621991,121.078347 973.527373,121.331337 973.527373,121.625136 C973.527373,121.810121 973.574016,121.982861 973.667303,122.143362 C973.76059,122.303864 973.903184,122.4426 974.095088,122.559576 C974.286993,122.676551 974.528203,122.769042 974.818725,122.837051 C975.109247,122.90506 975.451739,122.939064 975.84621,122.939064 C976.230019,122.939064 976.573843,122.9037 976.877692,122.832971 C977.181541,122.762241 977.438743,122.661589 977.649305,122.531012 C977.859867,122.400435 978.021118,122.245376 978.133062,122.065832 C978.245007,121.886289 978.300978,121.687705 978.300978,121.470076 Z M975.774246,116.981502 C976.062103,116.981502 976.316639,116.940697 976.537863,116.859086 C976.759086,116.777475 976.944325,116.663222 977.093584,116.516322 C977.242843,116.369423 977.354786,116.193962 977.429415,115.989935 C977.504045,115.785908 977.541359,115.561481 977.541359,115.316649 C977.541359,114.810661 977.390769,114.408054 977.089586,114.108814 C976.788402,113.809574 976.34996,113.659956 975.774246,113.659956 C975.203862,113.659956 974.768085,113.809574 974.466902,114.108814 C974.165718,114.408054 974.015128,114.810661 974.015128,115.316649 C974.015128,115.561481 974.053775,115.785908 974.13107,115.989935 C974.208365,116.193962 974.32164,116.369423 974.4709,116.516322 C974.620159,116.663222 974.804065,116.777475 975.022623,116.859086 C975.241181,116.940697 975.491719,116.981502 975.774246,116.981502 Z M986.304962,123.820457 L986.304962,112.754081 L987.152537,112.754081 C987.355103,112.754081 987.483037,112.854732 987.536344,113.056039 L987.656284,114.035365 C988.002779,113.605547 988.398576,113.260067 988.843688,112.998912 C989.2888,112.737757 989.801871,112.607182 990.382916,112.607182 C990.846686,112.607182 991.267803,112.698312 991.646282,112.880577 C992.024761,113.062841 992.347262,113.332153 992.613797,113.68852 C992.880331,114.044888 993.085559,114.48694 993.229488,115.01469 C993.373416,115.54244 993.445379,116.149072 993.445379,116.834603 C993.445379,117.443964 993.36542,118.011151 993.2055,118.536181 C993.045579,119.06121 992.816363,119.515504 992.517845,119.899075 C992.219326,120.282646 991.852847,120.584602 991.418396,120.804951 C990.983945,121.0253 990.494862,121.135473 989.951133,121.135473 C989.450048,121.135473 989.022267,121.051143 988.667776,120.882481 C988.313286,120.713819 988.000113,120.47443 987.728248,120.164309 L987.728248,123.820457 L986.304962,123.820457 Z M989.911153,113.782372 C989.447383,113.782372 989.040924,113.891185 988.691764,114.108814 C988.342605,114.326443 988.021436,114.633839 987.728248,115.031012 L987.728248,119.029924 C987.989451,119.389012 988.275971,119.642001 988.587817,119.788901 C988.899662,119.935801 989.247484,120.009249 989.631293,120.009249 C990.38292,120.009249 990.96129,119.734497 991.366422,119.184984 C991.771555,118.635471 991.974118,117.852018 991.974118,116.834603 C991.974118,116.295971 991.927475,115.833517 991.834188,115.447225 C991.740901,115.060934 991.606303,114.744016 991.43039,114.496464 C991.254478,114.248911 991.038588,114.068009 990.782715,113.953754 C990.526842,113.839499 990.236324,113.782372 989.911153,113.782372 Z M997.715237,109 L997.715237,121.021219 L996.291951,121.021219 L996.291951,109 L997.715237,109 Z M1007.17449,121.021219 L1006.54281,121.021219 C1006.40421,121.021219 1006.29227,120.999456 1006.20698,120.95593 C1006.12169,120.912405 1006.06571,120.819914 1006.03906,120.678455 L1005.87914,119.911317 C1005.66591,120.107183 1005.45802,120.282643 1005.25545,120.437704 C1005.05289,120.592765 1004.83966,120.72334 1004.61577,120.829434 C1004.39189,120.935528 1004.15334,121.015778 1003.90013,121.070185 C1003.64693,121.124592 1003.36574,121.151795 1003.05656,121.151795 C1002.74205,121.151795 1002.44753,121.10691 1002.173,121.017138 C1001.89847,120.927366 1001.65993,120.79271 1001.45736,120.613166 C1001.25479,120.433623 1001.09354,120.206476 1000.9736,119.931719 C1000.85366,119.656963 1000.79369,119.331884 1000.79369,118.956474 C1000.79369,118.630031 1000.88165,118.315834 1001.05756,118.013874 C1001.23347,117.711914 1001.51733,117.443962 1001.90913,117.210011 C1002.30094,116.97606 1002.81401,116.784277 1003.44836,116.634657 C1004.08271,116.485037 1004.85832,116.399347 1005.77519,116.377584 L1005.77519,115.732862 C1005.77519,115.090856 1005.6406,114.605279 1005.3714,114.276115 C1005.1022,113.946952 1004.70373,113.782372 1004.176,113.782372 C1003.8295,113.782372 1003.53765,113.827257 1003.30043,113.917029 C1003.06322,114.006801 1002.85799,114.107453 1002.68474,114.218988 C1002.5115,114.330523 1002.36224,114.431175 1002.23697,114.520947 C1002.1117,114.610719 1001.98776,114.655604 1001.86515,114.655604 C1001.7692,114.655604 1001.68525,114.629761 1001.61328,114.578074 C1001.54132,114.526387 1001.48401,114.46246 1001.44137,114.386289 L1001.1855,113.92111 C1001.63327,113.480411 1002.11569,113.151252 1002.63277,112.933624 C1003.14985,112.715995 1003.72289,112.607182 1004.35191,112.607182 C1004.80502,112.607182 1005.20748,112.683351 1005.5593,112.835691 C1005.91113,112.988031 1006.20698,113.200216 1006.44686,113.472252 C1006.68674,113.744289 1006.86798,114.073447 1006.99058,114.459739 C1007.11319,114.84603 1007.17449,115.2704 1007.17449,115.732862 L1007.17449,121.021219 Z M1003.48034,120.131665 C1003.73089,120.131665 1003.9601,120.105822 1004.168,120.054135 C1004.3759,120.002448 1004.5718,119.928999 1004.7557,119.833787 C1004.93961,119.738574 1005.11552,119.62296 1005.28344,119.486942 C1005.45136,119.350924 1005.61527,119.195866 1005.77519,119.021763 L1005.77519,117.299782 C1005.11952,117.321545 1004.56247,117.374592 1004.10403,117.458923 C1003.64559,117.543254 1003.27245,117.653427 1002.98459,117.789445 C1002.69674,117.925463 1002.48751,118.085962 1002.35691,118.270947 C1002.22631,118.455931 1002.16101,118.662676 1002.16101,118.891186 C1002.16101,119.108815 1002.19566,119.296517 1002.26495,119.454298 C1002.33425,119.612079 1002.42754,119.741294 1002.54481,119.841948 C1002.66209,119.942601 1002.80068,120.01605 1002.96061,120.062296 C1003.12053,120.108542 1003.29377,120.131665 1003.48034,120.131665 Z M1012.78767,121.151795 C1012.14799,121.151795 1011.65624,120.969534 1011.31241,120.605005 C1010.96859,120.240477 1010.79667,119.715455 1010.79667,119.029924 L1010.79667,113.970076 L1009.82116,113.970076 C1009.73587,113.970076 1009.66391,113.944233 1009.60527,113.892546 C1009.54663,113.840859 1009.51732,113.76061 1009.51732,113.651795 L1009.51732,113.072361 L1010.84465,112.900979 L1011.17248,110.346572 C1011.18315,110.264962 1011.2178,110.198314 1011.27643,110.146627 C1011.33507,110.09494 1011.4097,110.069097 1011.50032,110.069097 L1012.21996,110.069097 L1012.21996,112.917301 L1014.5388,112.917301 L1014.5388,113.970076 L1012.21996,113.970076 L1012.21996,118.931991 C1012.21996,119.280198 1012.30258,119.538628 1012.46783,119.707291 C1012.63309,119.875953 1012.84631,119.960283 1013.10751,119.960283 C1013.25677,119.960283 1013.38604,119.939881 1013.49532,119.899075 C1013.6046,119.85827 1013.69922,119.813384 1013.77918,119.764418 C1013.85914,119.715451 1013.9271,119.670566 1013.98307,119.629761 C1014.03905,119.588955 1014.08835,119.568553 1014.131,119.568553 C1014.20563,119.568553 1014.27226,119.614798 1014.3309,119.707291 L1014.74669,120.400979 C1014.50148,120.63493 1014.20563,120.818552 1013.85914,120.95185 C1013.51264,121.085148 1013.15549,121.151795 1012.78767,121.151795 Z M1017.61725,121.021219 L1017.61725,113.994559 L1016.7217,113.888466 C1016.60976,113.861262 1016.5178,113.819097 1016.44584,113.76197 C1016.37387,113.704842 1016.33789,113.621872 1016.33789,113.513058 L1016.33789,112.917301 L1017.61725,112.917301 L1017.61725,112.117519 C1017.61725,111.644176 1017.68255,111.223886 1017.81315,110.856638 C1017.94375,110.489389 1018.13033,110.179272 1018.37287,109.926279 C1018.61542,109.673285 1018.90727,109.481502 1019.24843,109.350925 C1019.5896,109.220348 1019.9734,109.15506 1020.39986,109.15506 C1020.76234,109.15506 1021.09817,109.209466 1021.40735,109.318281 L1021.37537,110.044614 C1021.37003,110.153428 1021.32472,110.218716 1021.23943,110.240479 C1021.15414,110.262242 1021.0342,110.273123 1020.87961,110.273123 L1020.63174,110.273123 C1020.38653,110.273123 1020.16397,110.305767 1019.96407,110.371055 C1019.76417,110.436344 1019.59226,110.542437 1019.44833,110.689336 C1019.3044,110.836236 1019.19379,111.029379 1019.1165,111.26877 C1019.0392,111.508162 1019.00056,111.804677 1019.00056,112.158324 L1019.00056,112.917301 L1021.34338,112.917301 L1021.34338,113.970076 L1019.04853,113.970076 L1019.04853,121.021219 L1017.61725,121.021219 Z M1026.96456,112.623504 C1027.55627,112.623504 1028.09066,112.724156 1028.56776,112.925462 C1029.04485,113.126769 1029.44998,113.412403 1029.78315,113.782372 C1030.11631,114.152341 1030.37218,114.599834 1030.55076,115.124864 C1030.72934,115.649894 1030.81863,116.236123 1030.81863,116.883569 C1030.81863,117.536456 1030.72934,118.124045 1030.55076,118.646355 C1030.37218,119.168664 1030.11631,119.614797 1029.78315,119.984766 C1029.44998,120.354735 1029.04485,120.639009 1028.56776,120.837595 C1028.09066,121.036182 1027.55627,121.135473 1026.96456,121.135473 C1026.37286,121.135473 1025.83846,121.036182 1025.36137,120.837595 C1024.88427,120.639009 1024.47781,120.354735 1024.14198,119.984766 C1023.80614,119.614797 1023.54761,119.168664 1023.36637,118.646355 C1023.18512,118.124045 1023.0945,117.536456 1023.0945,116.883569 C1023.0945,116.236123 1023.18512,115.649894 1023.36637,115.124864 C1023.54761,114.599834 1023.80614,114.152341 1024.14198,113.782372 C1024.47781,113.412403 1024.88427,113.126769 1025.36137,112.925462 C1025.83846,112.724156 1026.37286,112.623504 1026.96456,112.623504 Z M1026.96456,120.001088 C1027.76416,120.001088 1028.36119,119.727696 1028.75566,119.180903 C1029.15013,118.63411 1029.34737,117.87106 1029.34737,116.89173 C1029.34737,115.906959 1029.15013,115.139829 1028.75566,114.590316 C1028.36119,114.040802 1027.76416,113.76605 1026.96456,113.76605 C1026.55943,113.76605 1026.20761,113.836778 1025.90909,113.978237 C1025.61057,114.119696 1025.36137,114.32372 1025.16147,114.590316 C1024.96157,114.856911 1024.81231,115.18471 1024.71369,115.573721 C1024.61507,115.962733 1024.56576,116.402065 1024.56576,116.89173 C1024.56576,117.381395 1024.61507,117.819367 1024.71369,118.205658 C1024.81231,118.59195 1024.96157,118.917028 1025.16147,119.180903 C1025.36137,119.444778 1025.61057,119.647442 1025.90909,119.788901 C1026.20761,119.93036 1026.55943,120.001088 1026.96456,120.001088 Z M1033.57724,121.021219 L1033.57724,112.754081 L1034.39283,112.754081 C1034.54742,112.754081 1034.65404,112.784004 1034.71267,112.843852 C1034.77131,112.9037 1034.81129,113.007072 1034.83261,113.153972 L1034.92857,114.443417 C1035.20576,113.8667 1035.54825,113.416487 1035.95605,113.092764 C1036.36385,112.769041 1036.84227,112.607182 1037.39133,112.607182 C1037.61522,112.607182 1037.81778,112.633025 1037.99902,112.684712 C1038.18027,112.736399 1038.34818,112.808487 1038.50277,112.900979 L1038.31886,113.986398 C1038.28155,114.122416 1038.19893,114.190424 1038.07099,114.190424 C1037.99636,114.190424 1037.88175,114.164581 1037.72716,114.112894 C1037.57257,114.061208 1037.35668,114.035365 1037.07949,114.035365 C1036.58373,114.035365 1036.16928,114.182262 1035.83611,114.476061 C1035.50294,114.76986 1035.22442,115.19695 1035.00053,115.757345 L1035.00053,121.021219 L1033.57724,121.021219 Z M1041.02151,121.021219 L1041.02151,112.754081 L1041.86908,112.754081 C1042.07165,112.754081 1042.19958,112.854732 1042.25289,113.056039 L1042.35684,113.904788 C1042.65536,113.529378 1042.98985,113.221982 1043.36033,112.98259 C1043.73082,112.743198 1044.16126,112.623504 1044.65169,112.623504 C1045.20075,112.623504 1045.64452,112.778562 1045.98302,113.088683 C1046.32152,113.398805 1046.56539,113.817734 1046.71465,114.345484 C1046.8266,114.046244 1046.97452,113.787814 1047.15843,113.570185 C1047.34234,113.352556 1047.5489,113.173015 1047.77812,113.031556 C1048.00734,112.890097 1048.25121,112.786725 1048.50975,112.721436 C1048.76829,112.656148 1049.03082,112.623504 1049.29736,112.623504 C1049.72381,112.623504 1050.10362,112.692872 1050.43678,112.83161 C1050.76995,112.970349 1051.05247,113.173013 1051.28436,113.439608 C1051.51624,113.706204 1051.69349,114.034002 1051.81609,114.423014 C1051.9387,114.812026 1052,115.256798 1052,115.757345 L1052,121.021219 L1050.57671,121.021219 L1050.57671,115.757345 C1050.57671,115.109899 1050.43812,114.618881 1050.16092,114.284276 C1049.88373,113.949672 1049.48127,113.782372 1048.95353,113.782372 C1048.71898,113.782372 1048.49643,113.824537 1048.28586,113.908868 C1048.0753,113.9932 1047.89006,114.116974 1047.73014,114.280196 C1047.57022,114.443418 1047.44362,114.648802 1047.35033,114.896355 C1047.25705,115.143908 1047.2104,115.430902 1047.2104,115.757345 L1047.2104,121.021219 L1045.78712,121.021219 L1045.78712,115.757345 C1045.78712,115.093577 1045.65652,114.598478 1045.39531,114.272035 C1045.13411,113.945591 1044.75297,113.782372 1044.25189,113.782372 C1043.90006,113.782372 1043.57356,113.878944 1043.27238,114.072089 C1042.9712,114.265235 1042.69534,114.527746 1042.44479,114.85963 L1042.44479,121.021219 L1041.02151,121.021219 Z" id="Augmented-reality-le" fill="#929292"></path>
                    <path d="M198,127 L198,110 L205.563119,110 C207.507819,110 208.978084,110.501855 209.973959,111.505579 C210.726746,112.264299 211.103134,113.220589 211.103134,114.374477 C211.103134,116.065792 210.303309,117.330307 208.703637,118.168061 C209.777927,118.531615 210.603236,119.039397 211.179588,119.691423 C211.755941,120.343448 212.044113,121.226633 212.044113,122.341004 C212.044113,123.834736 211.483452,124.984654 210.362113,125.790795 C209.240774,126.596936 207.72346,127 205.810126,127 L198,127 Z M200.917035,124.356346 L205.833651,124.356346 C206.860891,124.356346 207.658755,124.152838 208.227266,123.745816 C208.795777,123.338794 209.080029,122.748028 209.080029,121.973501 C209.080029,121.246393 208.789896,120.685265 208.209623,120.290098 C207.62935,119.894931 206.762873,119.69735 205.610168,119.69735 L200.917035,119.69735 L200.917035,124.356346 Z M200.917035,117.172245 L204.963245,117.172245 C205.951278,117.172245 206.729538,116.972689 207.298049,116.57357 C207.866561,116.174452 208.150812,115.587638 208.150812,114.81311 C208.150812,114.141326 207.892045,113.613786 207.374504,113.230474 C206.856963,112.847162 206.127711,112.655509 205.186728,112.655509 L200.917035,112.655509 L200.917035,117.172245 Z M220.734368,127 L220.734368,110 L223.89841,110 L229.026746,118.037657 L234.155082,110 L237.307362,110 L237.307362,127 L234.343278,127 L234.343278,114.81311 L229.026746,122.827057 L228.932648,122.827057 L223.651403,114.86053 L223.651403,127 L220.734368,127 Z M245.785897,112.774059 L245.785897,110 L259.46538,110 L259.46538,112.774059 L254.125324,112.774059 L254.125324,127 L251.137715,127 L251.137715,112.774059 L245.785897,112.774059 Z M267.943915,127 L267.943915,110 L274.601342,110 C276.561725,110 278.118246,110.519637 279.270951,111.558926 C280.423656,112.598215 281,113.991158 281,115.737796 C281,116.970717 280.692225,118.031725 280.076664,118.920851 C279.461104,119.809977 278.653438,120.46792 277.653643,120.8947 C276.653848,121.321481 275.522724,121.534868 274.260237,121.534868 L270.907999,121.534868 L270.907999,127 L267.943915,127 Z M270.907999,118.843794 L274.354335,118.843794 C275.459991,118.843794 276.34215,118.561253 277.000839,117.996165 C277.659528,117.431076 277.988867,116.686197 277.988867,115.761506 C277.988867,114.781492 277.665409,114.030686 277.018482,113.509066 C276.371556,112.987445 275.483516,112.726639 274.354335,112.726639 L270.907999,112.726639 L270.907999,118.843794 Z" id="BMTP" fill="#4A4A4A"></path>
                    <g id="logos/BMTP" transform="translate(508.000000, 67.000000)">
                        <g id="Group-6">
                            <g id="body">
                                <mask id="mask-2" fill="white">
                                    <use xlink:href="#path-1"></use>
                                </mask>
                                <g id="Mask"></g>
                                <g id="Mixin/Colors/Blue" mask="url(#mask-2)" fill="#0063B9">
                                    <rect id="Rectangle-2" x="0" y="0" width="50" height="50"></rect>
                                </g>
                            </g>
                            <g id="play" transform="translate(50.000000, 50.000000)">
                                <mask id="mask-4" fill="white">
                                    <use xlink:href="#path-3"></use>
                                </mask>
                                <g id="Mask"></g>
                                <g id="Mixin/Colors/Yellow" mask="url(#mask-4)" fill="#F6A623">
                                    <rect id="Rectangle-2" x="0" y="0" width="50" height="50"></rect>
                                </g>
                            </g>
                            <g id="mind" transform="translate(50.000000, 0.000000)">
                                <mask id="mask-6" fill="white">
                                    <use xlink:href="#path-5"></use>
                                </mask>
                                <g id="Mask"></g>
                                <g id="Mixin/Colors/Red" mask="url(#mask-6)" fill="#D0011B">
                                    <rect id="Rectangle-2" x="0" y="0" width="50" height="50"></rect>
                                </g>
                            </g>
                            <g id="team" transform="translate(0.000000, 50.000000)">
                                <mask id="mask-8" fill="white">
                                    <use xlink:href="#path-7"></use>
                                </mask>
                                <g id="Mask"></g>
                                <g id="Mixin/Colors/Green" mask="url(#mask-8)">
                                    <rect id="Rectangle-2" fill="#62B307" x="0" y="0" width="50" height="50"></rect>
                                    <rect id="Rectangle-2" fill="#7ACC1C" x="0" y="0" width="50" height="50"></rect>
                                </g>
                            </g>
                        </g>
                    </g>
                </g>
            </g>
        </g>
    </g>
</svg>