<?xml version="1.0" encoding="utf-8"?>
<!-- Generator: Adobe Illustrator 19.1.0, SVG Export Plug-In . SVG Version: 6.00 Build 0)  -->
<svg version="1.1" id="Layer_1" xmlns="http://www.w3.org/2000/svg" xmlns:xlink="http://www.w3.org/1999/xlink" x="0px" y="0px"
	 width="100px" height="100px" viewBox="-24.5 -13.5 100 100" style="enable-background:new -24.5 -13.5 100 100;"
	 xml:space="preserve">
<style type="text/css">
	.st0{fill:#FFEC00;}
</style>
<path class="st0" d="M73,39.4l-15.6-0.3c-0.6,0-1-0.5-1-1s0.5-1,1-1L73,37.4c0.6,0,1,0.5,1,1C74,38.9,73.6,39.4,73,39.4z M72.4,22.4
	l-14.9,4.7c-0.1,0.1-0.2,0.1-0.3,0.1c-0.4,0-0.8-0.3-1-0.7c-0.2-0.5,0.1-1.1,0.6-1.3l14.9-4.7c0.5-0.2,1.1,0.1,1.3,0.6
	C73.2,21.6,72.9,22.2,72.4,22.4z M51.2,17.2c-0.2,0.2-0.4,0.3-0.7,0.3c-0.3,0-0.5-0.1-0.7-0.3c-0.4-0.4-0.4-1,0-1.4L61.1,4.9
	c0.4-0.4,1-0.4,1.4,0c0.4,0.4,0.4,1,0,1.4L51.2,17.2z M40.8,9.9c-0.1,0.4-0.5,0.6-0.9,0.6c-0.1,0-0.3,0-0.4-0.1
	C39,10.2,38.7,9.6,39,9.1l5.9-14.4c0.2-0.5,0.8-0.8,1.3-0.5C46.7-5.6,47-5,46.7-4.5L40.8,9.9z M25.6,7.6c-0.5,0-1-0.4-1-1L24.3-9
	c0-0.6,0.4-1,1-1c0.5,0,1,0.4,1,1l0.4,15.6C26.6,7.1,26.2,7.6,25.6,7.6z M11.5,10.3c-0.1,0.1-0.2,0.2-0.3,0.2
	c-0.4,0-0.8-0.2-0.9-0.6l-6-14.5c-0.2-0.5,0-1.1,0.5-1.3c0.5-0.2,1.1,0,1.3,0.5L12,9C12.2,9.5,12,10.1,11.5,10.3z M0.5,17.4
	c-0.2,0-0.5-0.1-0.7-0.3L-11.5,6.2c-0.4-0.4-0.4-1,0-1.4c0.4-0.4,1-0.4,1.4,0L1.2,15.6c0.4,0.4,0.4,1,0,1.4
	C1.1,17.3,0.8,17.4,0.5,17.4z M-5.1,26.5c-0.2,0.4-0.6,0.6-1,0.6c-0.1,0-0.2,0-0.3,0l-14.9-4.8c-0.5-0.1-0.8-0.7-0.6-1.2
	c0.2-0.5,0.7-0.8,1.3-0.6l14.9,4.7C-5.2,25.4-4.9,25.9-5.1,26.5z M-5.4,38c0,0.6-0.4,1-1,1L-22,39.3c-0.5,0-1-0.4-1-1
	c0-0.6,0.4-1,1-1L-6.4,37C-5.9,37-5.4,37.4-5.4,38z M-20.1,53.7l14.5-5.8c0.5-0.2,1.1,0,1.3,0.6c0.2,0.5,0,1.1-0.6,1.3l-14.6,5.7
	c-0.1,0.1-0.2,0.1-0.3,0.1c-0.4,0-0.8-0.2-0.9-0.6C-20.9,54.5-20.7,53.9-20.1,53.7z M0,58.3c0.4-0.4,1-0.5,1.4-0.1
	c0.4,0.4,0.5,1,0.1,1.4L-8.7,71.5c-0.2,0.2-0.5,0.3-0.7,0.3c-0.2,0-0.5-0.1-0.7-0.2c-0.4-0.4-0.5-1-0.1-1.4L0,58.3z M-3.1,36.8
	c0-14.7,12.6-26.7,28.1-26.7s28,11.9,28,26.7c0,9.2-5,17.3-12.5,22.1c0.5,1.2,0.7,2.4,0.7,3.7v9.9c0,5.7-4.9,10.4-10.9,10.4h-9.3
	c-6,0-10.9-4.7-10.9-10.4v-9.9c0-1,0.2-2.1,0.5-3C2.1,54.8-3.1,46.1-3.1,36.8z M12.8,72.6c0,4.3,3.7,7.8,8.2,7.8h9.3
	c4.5,0,8.2-3.5,8.2-7.8h-0.1v-0.1c-3.2,1.5-6.7,2.2-10.2,2.2c-1.5,0-2.9-0.1-4.4-0.4c-0.4-0.1-0.6-0.4-0.5-0.8
	c0.1-0.4,0.4-0.6,0.8-0.5c4.8,0.9,10,0.2,14.3-2v-5.3c-3.7,1.7-7.9,2.7-12.1,2.7c-0.4,0-0.8-0.3-0.8-0.7c0-0.4,0.3-0.6,0.7-0.6h0.1
	c4.2,0,8.4-1,12.1-2.9v-1.4c0-0.8-0.2-1.6-0.4-2.3c-3.9,2-8.4,3.1-13.1,3.1c-4.1,0-8.2-0.9-11.9-2.6c-0.1,0.5-0.2,1.1-0.2,1.7V72.6z
	 M11.3,57c0.1,0.1,0.2,0.1,0.3,0.2c4,2.5,8.6,3.9,13.7,3.9c13.7,0,25-10.6,24.9-23.7c0-0.2,0-0.3,0-0.5c0-0.1,0-0.1,0-0.2
	c0-13.2-11.3-24.1-25.3-24.1C11,12.7-0.4,23.6-0.4,36.8C-0.4,45,4.1,52.6,11.3,57z M9.4,23.1c2.4-1.5,5.7-1.4,8.3,0.1
	c0.2,0.1,0.5,0.3,0.7,0.4c1.8-1.8,4.2-3.2,6.4-3.2c2.7,0,4.2,1.2,5.5,2.8c0.2-0.1,0.4-0.2,0.6-0.3c1.8-0.9,4-1,6.2-0.3
	c3.6,1,6.5,3.8,7.6,7.2c1.1,3.4,0.4,7.2-1.9,10c-0.2,0.3-0.7,0.3-1,0.1c-0.3-0.2-0.3-0.6-0.1-0.9c2-2.5,2.7-5.8,1.7-8.8
	s-3.5-5.4-6.7-6.3c-1.9-0.5-3.8-0.5-5.2,0.2c-0.1,0.1-0.3,0.2-0.4,0.2c0.2,0.2,0.3,0.5,0.5,0.7c1.7,2.5,2.7,5.7,2.8,8.8
	c0,1.1-0.2,2.4-0.6,3.3c-0.4,0.9-1.8,3-3.3,3c-1.3,0-2.5-1.6-3.1-2.5c-0.6-0.9-0.9-2.1-1-2.9c-0.3-1.9-0.2-3.9,0.4-6.4
	c0.4-1.7,1.2-3.1,2.3-4.2c-1.2-1.5-2.3-2.3-4.4-2.3c-1.8,0-3.8,1.2-5.4,2.7c1.4,1.4,2.4,3.2,2.9,5.3c0.6,2.6,0.6,5.3,0,7.9
	c-0.3,1.4-1.2,2.8-2.8,2.9c-0.1-0.1-0.1-0.1-0.2-0.1c-1.6,0-2.9-1-3.7-3C14,34,14.7,31,15.7,27.7c0.3-1,0.9-2.1,1.7-3.1
	c-0.2-0.1-0.3-0.2-0.5-0.3C14.8,23,12,23,10.1,24.2c-1.7,1.1-2.8,3.1-2.8,5.3c-0.1,2.3,2,8.1,4.7,9.9c0.3,0.2,0.4,0.6,0.2,0.9
	c-0.2,0.3-0.6,0.4-0.9,0.2C8.2,38.4,6,32,6,29.5C6.1,26.8,7.4,24.4,9.4,23.1z M28.1,28.5c-0.6,2.4-0.7,4.3-0.4,6
	c0.2,1,0.5,1.9,0.8,2.5c0.7,1.2,1.6,1.9,1.9,1.9c0.5,0,1.6-1.3,2.1-2.2C32.8,36,33,34.9,33,34c-0.1-2.9-1-5.8-2.6-8.2
	c-0.3-0.3-0.4-0.5-0.5-0.7C29,26,28.4,27.2,28.1,28.5z M17,28.1c-0.9,3.2-1.5,5.8-0.2,9c0.7,1.6,1.5,2.3,2.6,2.2
	c0.9-0.1,1.4-1.2,1.6-1.9c0.6-2.3,0.6-4.8,0-7.3c-0.5-1.9-1.4-3.4-2.6-4.6C17.7,26.3,17.2,27.2,17,28.1z M50.9,58.4l10.2,11.8
	c0.4,0.4,0.3,1-0.1,1.4c-0.1,0.2-0.4,0.2-0.6,0.2c-0.3,0-0.6-0.1-0.8-0.3L49.4,59.7c-0.4-0.4-0.3-1,0.1-1.4
	C49.9,57.9,50.5,58,50.9,58.4z M55.4,48.5c0.2-0.5,0.8-0.8,1.3-0.6l14.5,5.8c0.5,0.2,0.8,0.8,0.6,1.3c-0.1,0.4-0.5,0.7-0.9,0.7
	c-0.1,0-0.2,0-0.4-0.1L56,49.8C55.5,49.6,55.2,49,55.4,48.5z"/>
</svg>
