<?xml version="1.0" encoding="UTF-8"?>
<svg width="57px" height="86px" viewBox="0 0 57 86" version="1.1" xmlns="http://www.w3.org/2000/svg" xmlns:xlink="http://www.w3.org/1999/xlink">
    <!-- Generator: Sketch 42 (36781) - http://www.bohemiancoding.com/sketch -->
    <title>closed-beta-arrow</title>
    <desc>Created with Sketch.</desc>
    <defs></defs>
    <g id="Page-1" stroke="none" stroke-width="1" fill="none" fill-rule="evenodd">
        <g id="00---Landing" transform="translate(-764.000000, -5831.000000)" fill-rule="nonzero" fill="#FFFFFF">
            <g id="Mobile-App" transform="translate(0.000000, 4803.000000)">
                <path d="M792.248042,1028.01294 C791.199792,1028.11277 790.201458,1028.56559 789.500842,1029.3179 L765.533702,1054.87703 C763.984502,1056.48328 764.084336,1059.34635 765.683452,1060.90268 C767.330703,1062.41088 770.177737,1062.35918 771.675237,1060.70302 L788.352758,1042.97725 L788.352758,1108.86192 C788.352758,1111.12244 790.349426,1113.1815 792.597459,1113.1815 C794.84371,1113.1815 796.84216,1111.12244 796.84216,1108.86192 L796.84216,1042.97725 L813.471547,1060.70302 C815.018964,1062.36097 817.865998,1062.41088 819.463332,1060.90268 C821.110583,1059.34635 821.160499,1056.48328 819.662999,1054.87703 L795.694076,1029.3179 C794.795576,1028.41405 793.49596,1027.91132 792.248042,1028.01294 L792.248042,1028.01294 Z" id="closed-beta-arrow" transform="translate(792.585205, 1070.590749) rotate(180.000000) translate(-792.585205, -1070.590749) "></path>
            </g>
        </g>
    </g>
</svg>