<?xml version="1.0" encoding="utf-8"?>
<!-- Generator: Adobe Illustrator 19.1.0, SVG Export Plug-In . SVG Version: 6.00 Build 0)  -->
<svg version="1.1" id="Layer_1" xmlns="http://www.w3.org/2000/svg" xmlns:xlink="http://www.w3.org/1999/xlink" x="0px" y="0px"
	 width="100px" height="100px" viewBox="-41 -14 100 100" style="enable-background:new -41 -14 100 100;" xml:space="preserve">
<style type="text/css">
	.st0{fill:#FFFFFF;}
</style>
<path class="st0" d="M42.7,74H9h-33.7c-3.5,0-6.3-2.8-6.3-6.3V36.5c0-1.5,0.6-2.9,1.5-4c0,0,0,0,0,0l0,0c0.2-0.3,0.5-0.5,0.7-0.7
	l31.1-31C4.1-1,6.5-2,9-2s4.9,1,6.7,2.8l31.1,31c0.3,0.2,0.5,0.5,0.7,0.7l0,0c0,0,0,0,0,0c0.9,1.1,1.5,2.5,1.5,4v31.1
	C49,71.2,46.2,74,42.7,74z M14.3,2.1C12.9,0.7,11-0.1,9-0.1S5.1,0.7,3.7,2.1l-29.6,29.5l9,9V28.4c0-3.5,2.8-6.3,6.3-6.3h39.1
	c3.5,0,6.3,2.8,6.3,6.3v12.2l9-9L14.3,2.1z M-15,28.4v14.1L3.7,61.1C5.1,62.5,7,63.3,9,63.3s3.9-0.8,5.3-2.2L33,42.5V28.4
	c0-2.4-2-4.4-4.4-4.4h-39.1C-13,23.9-15,25.9-15,28.4z M47.1,36.5c0-1.5-0.8-2.8-1.9-3.6L15.7,62.4c-1.8,1.8-4.1,2.8-6.7,2.8
	s-4.9-1-6.7-2.8l-29.5-29.5c-1.1,0.8-1.9,2.1-1.9,3.6v31.1c0,1.3,0.6,2.5,1.5,3.3l16.8-16.7c0.4-0.4,1-0.4,1.3,0l0,0
	c0.4,0.4,0.4,1,0,1.3l-16.2,16.2h-0.6c0.5,0.2,1,0.3,1.6,0.3H9h33.7c0.6,0,1.1-0.1,1.6-0.3h-0.6L27.5,55.6c-0.4-0.4-0.4-1,0-1.3l0,0
	c0.4-0.4,1-0.4,1.3,0L45.6,71c0.9-0.8,1.5-2,1.5-3.3V36.5z M-7.5,29.8H9c0.5,0,1,0.4,1,0.9c0,0.5-0.4,0.9-1,0.9H-7.5
	c-0.5,0-0.9-0.4-0.9-0.9C-8.4,30.3-8,29.8-7.5,29.8z M-7.5,37.1h32.9c0.5,0,1,0.4,1,0.9c0,0.5-0.4,0.9-1,0.9H-7.5
	c-0.5,0-0.9-0.4-0.9-0.9C-8.4,37.5-8,37.1-7.5,37.1z M-7.5,44.4h32.9c0.5,0,1,0.4,1,0.9c0,0.5-0.4,0.9-1,0.9H-7.5
	c-0.5,0-0.9-0.4-0.9-0.9C-8.4,44.8-8,44.4-7.5,44.4z"/>
</svg>
