<svg width="8" height="5" viewBox="0 0 8 5" version="1.1" xmlns="http://www.w3.org/2000/svg" xmlns:xlink="http://www.w3.org/1999/xlink">
<title>fa-angle-up</title>
<desc>Created using Figma</desc>
<g id="Canvas" transform="translate(-511 672)">
<g id="fa-angle-up">
<use xlink:href="#path0_fill" transform="translate(511.516 -671.699)" fill="#180821"/>
</g>
</g>
<defs>
<path id="path0_fill" d="M 6.68304 3.34152C 6.68304 3.28795 6.65625 3.22768 6.61607 3.1875L 3.49554 0.0669646C 3.45536 0.0267861 3.39509 0 3.34152 0C 3.28795 0 3.22768 0.0267861 3.1875 0.0669646L 0.0669643 3.1875C 0.0267857 3.22768 0 3.28795 0 3.34152C 0 3.39509 0.0267857 3.45536 0.0669643 3.49554L 0.401786 3.83036C 0.441964 3.87054 0.502232 3.89732 0.555804 3.89732C 0.609375 3.89732 0.669643 3.87054 0.709821 3.83036L 3.34152 1.19866L 5.97321 3.83036C 6.01339 3.87054 6.07366 3.89732 6.12723 3.89732C 6.1875 3.89732 6.24107 3.87054 6.28125 3.83036L 6.61607 3.49554C 6.65625 3.45536 6.68304 3.39509 6.68304 3.34152Z"/>
</defs>
</svg>
