<?xml version="1.0" encoding="utf-8"?>
<!-- Generator: Adobe Illustrator 19.1.0, SVG Export Plug-In . SVG Version: 6.00 Build 0)  -->
<svg version="1.1" id="Layer_1" xmlns="http://www.w3.org/2000/svg" xmlns:xlink="http://www.w3.org/1999/xlink" x="0px" y="0px"
	 width="100px" height="100px" viewBox="-31 -14 100 100" style="enable-background:new -31 -14 100 100;" xml:space="preserve">
<style type="text/css">
	.st0{fill:#51355A;}
</style>
<path class="st0" d="M26.2,44c-1.2,0-2.2-1-2.2-2.2c0-1.2,1-2.2,2.2-2.2c1.2,0,2.2,1,2.2,2.2C28.3,43.1,27.4,44,26.2,44z M14.5,52.3
	c0-1.1,1.7,0.1,3.9,0.1c2.2,0,3.9-1.2,3.9-0.1c0,1.1-1.7,2.4-3.9,2.4C16.2,54.7,14.5,53.4,14.5,52.3z M18.1,60.7c1.1,0,2-0.4,2,0.3
	c0,0.7-0.9,1.3-2,1.3c-1.1,0-2-0.6-2-1.3C16.1,60.3,17,60.7,18.1,60.7z M12.7,57.1c0-1,2.4-0.1,5.4-0.1c3,0,5.4-0.9,5.4,0.1
	c0,1-2.4,1.7-5.4,1.7C15.1,58.8,12.7,58.1,12.7,57.1z M12.1,41.8c0,1.2-1,2.2-2.2,2.2c-1.2,0-2.2-1-2.2-2.2c0-1.2,1-2.2,2.2-2.2
	C11.1,39.6,12.1,40.6,12.1,41.8z M3.8,26.2c-0.7-7.8,5.1-11.8,14.4-11.8c9.3,0,15.1,4,14.4,11.8c-0.4,4-5.2,6.1-14.4,6.1
	C8.9,32.3,4.1,30.1,3.8,26.2z M14,22.5C14,22.5,14,22.5,14,22.5c-0.1,0-0.2,0-0.2,0c0-0.2,0-0.4,0-0.4c0-0.1,0-0.3,0-0.4
	c0-1.2-0.9-2.1-2.1-2.1c-0.5,0-1.1,0.2-1.5,0.6c-0.4,0.4-0.6,0.9-0.6,1.5c0,0.1,0,0.2,0,0.4c0,0,0,0.1,0,0.4c-0.1,0-0.1,0-0.2,0
	c0,0-0.1,0-0.1,0c-0.1,0-0.1,0.1-0.1,0.1c0,0,0,0.7,0.5,0.9c0,0.1,0.1,0.2,0.1,0.4c0.1,0.3,0.2,0.5,0.3,0.7v0
	c0.1,0.3,0.3,0.5,0.5,0.6c0.3,0.2,0.6,0.4,1,0.4c0.4,0,0.7-0.1,1-0.4c0.2-0.2,0.4-0.4,0.5-0.7c0,0,0,0,0,0c0.1-0.2,0.2-0.5,0.3-0.7
	c0-0.1,0.1-0.2,0.1-0.4c0.5-0.2,0.5-0.9,0.5-0.9C14.1,22.6,14.1,22.5,14,22.5z M21.4,21.4c0,0-0.1,0-0.1,0s-0.1,0-0.2,0.1
	c0-0.3,0-0.5,0-0.5c0-0.2,0-0.4,0-0.6c0-0.8-0.3-1.6-0.9-2.2c-0.6-0.6-1.3-0.9-2.2-0.9c-1.7,0-3,1.4-3,3.1c0,0.1,0,0.3,0,0.6
	c0,0,0,0.2,0,0.5c-0.1-0.1-0.2-0.1-0.2-0.1c-0.1,0-0.1,0-0.1,0c-0.1,0-0.1,0.1-0.1,0.2c0,0,0,1.1,0.7,1.3c0,0.2,0.1,0.3,0.1,0.5
	c0.1,0.2,0.1,0.4,0.2,0.6c0.1,0.2,0.1,0.3,0.2,0.4c0.1,0.2,0.2,0.3,0.3,0.4c0,0.1,0.1,0.1,0.2,0.2c0.1,0.1,0.2,0.3,0.3,0.4
	c0.1,0.1,0.3,0.2,0.4,0.3c0.2,0.1,0.4,0.2,0.6,0.2c0,0,0.1,0,0.1,0c0.1,0,0.2,0,0.3,0c0.1,0,0.2,0,0.3,0c0,0,0.1,0,0.1,0
	c0.2,0,0.5-0.1,0.7-0.3c0.1-0.1,0.2-0.2,0.3-0.2c0.1-0.1,0.1-0.1,0.2-0.2c0.1-0.1,0.1-0.1,0.1-0.2C20,25.1,20,25,20.1,25
	c0.1-0.1,0.2-0.3,0.3-0.4c0.1-0.1,0.1-0.3,0.2-0.4c0.1-0.2,0.1-0.4,0.2-0.6c0.1-0.2,0.1-0.3,0.1-0.5c0.7-0.3,0.7-1.3,0.7-1.3
	C21.5,21.6,21.5,21.5,21.4,21.4z M26.7,22.5C26.7,22.5,26.7,22.5,26.7,22.5c-0.1,0-0.2,0-0.2,0c0-0.2,0-0.4,0-0.4c0-0.1,0-0.3,0-0.4
	c0-0.5-0.2-1.1-0.6-1.5c-0.4-0.4-0.9-0.6-1.5-0.6c-1.1,0-2.1,0.9-2.1,2.1c0,0.1,0,0.2,0,0.4c0,0,0,0.1,0,0.4c-0.1,0-0.1,0-0.2,0
	c0,0-0.1,0-0.1,0c-0.1,0-0.1,0.1-0.1,0.1c0,0,0,0.7,0.5,0.9c0,0.1,0.1,0.2,0.1,0.4c0.1,0.3,0.2,0.5,0.3,0.7c0.1,0.3,0.3,0.5,0.5,0.7
	c0.3,0.2,0.6,0.4,1,0.4c0.4,0,0.7-0.1,1-0.4c0.2-0.2,0.4-0.4,0.5-0.7c0.1-0.2,0.2-0.4,0.3-0.7c0-0.1,0.1-0.2,0.1-0.4
	c0.4-0.2,0.5-0.9,0.5-0.9C26.8,22.6,26.8,22.5,26.7,22.5z M28.8,29.3v-0.8c0-1.8-1.2-2.1-1.2-2.1l-1.8-0.7c-0.5,0.4-1,0.5-1.3,0.5
	s-0.9-0.1-1.4-0.5l-1.4,0.5l1.1,0.4c0.3,0.1,2.9,1,3,3.5C28.1,29.8,28.8,29.3,28.8,29.3z M11.7,30.4c0.1,0,0.2,0,0.4,0.1
	c0.1,0,0.3,0,0.4,0c0.3,0,0.6,0.1,1,0.1c0,0,0.1,0,0.1,0c0.1,0,0.3,0,0.5,0.1c0.3,0,0.6,0.1,1,0.1c0.2,0,0.4,0,0.5,0
	c0.3,0,0.5,0,0.8,0c0.3,0,0.7,0,1,0c0.2,0,0.4,0,0.6,0c0.2,0,0.4,0,0.6,0c0.3,0,0.7,0,1,0c0.3,0,0.5,0,0.8,0c0.2,0,0.4,0,0.5,0
	c0.3,0,0.7-0.1,1-0.1c0.1,0,0.3,0,0.4-0.1c0,0,0.1,0,0.1,0c0,0,0,0,0,0h0c0.2,0,0.4,0,0.6-0.1c0,0,0.1,0,0.1,0c0.1,0,0.2,0,0.3-0.1
	c0.3,0,0.6-0.1,0.7-0.1c0.1,0,0.1,0,0.1,0c0,0,0,0,0,0c0-2.7-1.8-3.1-1.8-3.1L21,26.6l-0.6-0.2L20,26.2l-0.1,0c0,0,0,0-0.1,0
	c0,0-0.1,0-0.1-0.1c-0.6,0.5-1.3,0.6-1.7,0.6c-1.2,0-2.2-0.3-2.2-0.3l-0.6,0.2l-1.7,0.7C13.5,27.2,11.6,27.7,11.7,30.4
	C11.6,30.4,11.7,30.4,11.7,30.4z M7.4,29.3c0,0,0.4,0.4,2.6,0.8c0.3-2.6,3-3.3,3.3-3.4l1.1-0.4l-1.4-0.5c-0.5,0.4-1,0.5-1.3,0.5
	c-0.4,0-0.9-0.1-1.3-0.5l-1.8,0.7c0,0-1.3,0.3-1.3,2.1V29.3z M47.9,76c-0.3-0.1-0.5-0.1-0.5-0.1l-17.3-6.6c0,0-1.8-0.2-2.7-5.1
	c3.3-2.8,5.9-7.2,7.7-13.3c0.3-1.1,0.6-2.2,0.9-3.3c3.6-1.4,4.2-6.3,4.3-7.9c0,0,0,0,0,0c0-0.3,0.3-2.9-2.9-2.7l0,0.2
	c0.1-1.5,0.1-2.4,0.1-2.4c0-1.5,0.1-2.7,0.1-3.5c0-5.2-2-10.1-5.7-13.8c-3.7-3.8-8.6-5.9-13.8-5.9c-10.8,0-19.6,8.8-19.6,19.7
	c0,0.8,0,2.1,0.1,3.5c0,0,0,0.8,0.1,2.3c-1.7-0.1-2.4,0.6-2.7,1.3c-0.3,0.6-0.2,1.3-0.2,1.5c0.1,1.5,0.8,6.6,4.4,8
	c0.3,1.1,0.5,2.2,0.8,3.3c3.1,10.9,9,16.6,17,16.6c3.4,0,6.5-1.1,9.1-3.1c-0.5,1.2-1.4,2.6-3.2,3.9c0,0-9.2,6.4-19.2,1.5l-15.1,5.8
	C-20,67.2-26,55-26,41.3C-26,16.3-5.9-4,19-4c24.9,0,45,20.3,45,45.3C64,55.2,57.7,67.7,47.9,76z"/>
</svg>
