<?xml version="1.0" encoding="UTF-8"?>
<svg width="40px" height="40px" viewBox="0 0 40 40" version="1.1" xmlns="http://www.w3.org/2000/svg" xmlns:xlink="http://www.w3.org/1999/xlink">
    <!-- Generator: Sketch 43.2 (39069) - http://www.bohemiancoding.com/sketch -->
    <title>icon-instagram</title>
    <desc>Created with Sketch.</desc>
    <defs></defs>
    <g id="Social-Media" stroke="none" stroke-width="1" fill="none" fill-rule="evenodd" opacity="0.400000006">
        <g id="icon-instagram" fill="#FFFFFF">
            <path d="M35,8.75 L35,31.328125 C35,32.3177133 34.6354203,33.1770797 33.90625,33.90625 C33.1770797,34.6354203 32.2916719,35 31.25,35 L8.75,35 C7.70832812,35 6.82292031,34.6354203 6.09375,33.90625 C5.36457969,33.1770797 5,32.3177133 5,31.328125 L5,8.75 C5,7.70832812 5.36457969,6.82292031 6.09375,6.09375 C6.82292031,5.36457969 7.70832812,5 8.75,5 L31.25,5 C32.2916719,5 33.1770797,5.36457969 33.90625,6.09375 C34.6354203,6.82292031 35,7.70832812 35,8.75 Z M20,13.75 C18.2812414,13.75 16.809902,14.361973 15.5859375,15.5859375 C14.361973,16.809902 13.75,18.2812414 13.75,20 C13.75,21.7187586 14.361973,23.190098 15.5859375,24.4140625 C16.809902,25.638027 18.2812414,26.25 20,26.25 C21.7187586,26.25 23.190098,25.638027 24.4140625,24.4140625 C25.638027,23.190098 26.25,21.7187586 26.25,20 C26.25,18.2812414 25.638027,16.809902 24.4140625,15.5859375 C23.190098,14.361973 21.7187586,13.75 20,13.75 Z M32.5,12.5 L32.5,8.75 C32.5,7.9166625 32.0833375,7.5 31.25,7.5 L27.5,7.5 C26.6666625,7.5 26.25,7.9166625 26.25,8.75 L26.25,12.5 C26.25,13.3333375 26.6666625,13.75 27.5,13.75 L31.25,13.75 C32.0833375,13.75 32.5,13.3333375 32.5,12.5 Z M31.328125,32.5 C32.1093789,32.5 32.5,32.0833375 32.5,31.25 L32.5,17.5 L28.4375,17.5 C28.6458344,18.1770867 28.75,19.0104117 28.75,20 C28.75,22.4479289 27.916675,24.5052 26.25,26.171875 C24.5312414,27.8906336 22.4479289,28.75 20,28.75 C17.6041547,28.75 15.5468836,27.8906336 13.828125,26.171875 C12.1093664,24.4531164 11.25,22.3958453 11.25,20 C11.25,19.2187461 11.380207,18.3854211 11.640625,17.5 L7.5,17.5 L7.5,31.25 C7.5,31.6145852 7.63020703,31.9140613 7.890625,32.1484375 C8.15104297,32.3828137 8.46353984,32.5 8.828125,32.5 L31.328125,32.5 Z" id="ion-social-instagram-outline---Ionicons"></path>
        </g>
    </g>
</svg>