<?xml version="1.0" encoding="UTF-8"?>
<svg width="40px" height="40px" viewBox="0 0 40 40" version="1.1" xmlns="http://www.w3.org/2000/svg" xmlns:xlink="http://www.w3.org/1999/xlink">
    <!-- Generator: Sketch 43.2 (39069) - http://www.bohemiancoding.com/sketch -->
    <title>icon-linkedin</title>
    <desc>Created with Sketch.</desc>
    <defs></defs>
    <g id="Social-Media" stroke="none" stroke-width="1" fill="none" fill-rule="evenodd" opacity="0.400000006">
        <g id="icon-linkedin" fill="#FFFFFF">
            <path d="M32.578125,5 C33.2552117,5 33.8281227,5.22135195 34.296875,5.6640625 C34.7656273,6.10677305 35,6.66666328 35,7.34375 L35,32.421875 C35,33.0989617 34.7656273,33.6979141 34.296875,34.21875 C33.8281227,34.7395859 33.2552117,35 32.578125,35 L7.578125,35 C6.90103828,35 6.30208594,34.7395859 5.78125,34.21875 C5.26041406,33.6979141 5,33.0989617 5,32.421875 L5,7.34375 C5,6.66666328 5.24739336,6.10677305 5.7421875,5.6640625 C6.23698164,5.22135195 6.84895469,5 7.578125,5 L32.578125,5 Z M14.296875,30 L14.296875,16.640625 L10,16.640625 L10,30 L14.296875,30 Z M12.265625,14.609375 C12.9427117,14.609375 13.502602,14.388023 13.9453125,13.9453125 C14.388023,13.502602 14.609375,12.9687531 14.609375,12.34375 C14.609375,11.6666633 14.4010437,11.106773 13.984375,10.6640625 C13.5677063,10.221352 13.0208367,10 12.34375,10 C11.6666633,10 11.106773,10.221352 10.6640625,10.6640625 C10.221352,11.106773 10,11.6666633 10,12.34375 C10,12.9687531 10.2083313,13.502602 10.625,13.9453125 C11.0416687,14.388023 11.5885383,14.609375 12.265625,14.609375 Z M30,30 L30,22.1875 C30,20.260407 29.5442754,18.8020883 28.6328125,17.8125 C27.7213496,16.8229117 26.5364656,16.328125 25.078125,16.328125 C23.5156172,16.328125 22.2135469,17.0572844 21.171875,18.515625 L21.171875,16.640625 L16.875,16.640625 L16.875,30 L21.171875,30 L21.171875,22.421875 C21.171875,21.9010391 21.2239578,21.5364594 21.328125,21.328125 C21.7447937,20.2864531 22.4739531,19.765625 23.515625,19.765625 C24.9739656,19.765625 25.703125,20.729157 25.703125,22.65625 L25.703125,30 L30,30 Z" id="ion-social-linkedin---Ionicons"></path>
        </g>
    </g>
</svg>