<?xml version="1.0" encoding="UTF-8"?>
<svg width="200px" height="60px" viewBox="0 0 200 60" version="1.1" xmlns="http://www.w3.org/2000/svg" xmlns:xlink="http://www.w3.org/1999/xlink">
    <!-- Generator: Sketch 42 (36781) - http://www.bohemiancoding.com/sketch -->
    <title>logo-color</title>
    <desc>Created with Sketch.</desc>
    <defs>
        <path d="M0,0 L12,0 L12,12 L0,12 L0,0 Z M3,3 L3,9 L9,9 L9,3 L3,3 Z" id="path-1"></path>
        <path d="M0,0 L12,0 L12,12 L0,12 L0,0 Z M9.78,6.06 L3.18,2.1 L3.18,10.02 L9.78,6.06 Z" id="path-3"></path>
        <path d="M0,0 L12,0 L12,12 L0,12 L0,0 Z M6,9.36 C7.78940259,9.36 9.24,7.90940259 9.24,6.12 C9.24,4.33059741 7.78940259,2.88 6,2.88 C4.21059741,2.88 2.76,4.33059741 2.76,6.12 C2.76,7.90940259 4.21059741,9.36 6,9.36 Z" id="path-5"></path>
        <path d="M0,0 L12,0 L12,12 L0,12 L0,0 Z M3.84,5.28 C4.63529004,5.28 5.28,4.63529004 5.28,3.84 C5.28,3.04470996 4.63529004,2.4 3.84,2.4 C3.04470996,2.4 2.4,3.04470996 2.4,3.84 C2.4,4.63529004 3.04470996,5.28 3.84,5.28 Z M3.84,9.6 C4.63529004,9.6 5.28,8.95529004 5.28,8.16 C5.28,7.36470996 4.63529004,6.72 3.84,6.72 C3.04470996,6.72 2.4,7.36470996 2.4,8.16 C2.4,8.95529004 3.04470996,9.6 3.84,9.6 Z M8.16,5.28 C8.95529004,5.28 9.6,4.63529004 9.6,3.84 C9.6,3.04470996 8.95529004,2.4 8.16,2.4 C7.36470996,2.4 6.72,3.04470996 6.72,3.84 C6.72,4.63529004 7.36470996,5.28 8.16,5.28 Z M8.16,9.6 C8.95529004,9.6 9.6,8.95529004 9.6,8.16 C9.6,7.36470996 8.95529004,6.72 8.16,6.72 C7.36470996,6.72 6.72,7.36470996 6.72,8.16 C6.72,8.95529004 7.36470996,9.6 8.16,9.6 Z" id="path-7"></path>
    </defs>
    <g id="Page-1" stroke="none" stroke-width="1" fill="none" fill-rule="evenodd">
        <g id="00.1---Top-navigation" transform="translate(-163.000000, 0.000000)">
            <g id="header">
                <g id="logo-color" transform="translate(163.000000, 0.000000)">
                    <rect id="bg" fill-opacity="0" fill="#D8D8D8" x="0" y="0" width="200" height="60"></rect>
                    <g id="logo">
                        <rect id="bg" fill-opacity="0" fill="#D8D8D8" x="0" y="0" width="200" height="60"></rect>
                        <path d="M58,36 L58,23 L63.6477308,23 C65.0999281,23 66.197843,23.3837712 66.9415085,24.151325 C67.5036494,24.7315231 67.7847156,25.4628036 67.7847156,26.3451883 C67.7847156,27.6385467 67.1874499,28.6055291 65.9929006,29.2461646 C66.7951224,29.5241762 67.4114187,29.9124801 67.8418078,30.4110879 C68.2721969,30.9096957 68.4873882,31.5850724 68.4873882,32.4372385 C68.4873882,33.5795036 68.0687166,34.4588533 67.231361,35.0753138 C66.3940053,35.6917744 65.2609571,36 63.8321824,36 L58,36 Z M60.178285,33.9783821 L63.8497492,33.9783821 C64.6168373,33.9783821 65.2126391,33.8227584 65.6371726,33.5115063 C66.061706,33.2002541 66.2739696,32.748492 66.2739696,32.1562064 C66.2739696,31.6001832 66.0573144,31.1710847 65.6239975,30.8688982 C65.1906805,30.5667116 64.5436427,30.4156206 63.6828645,30.4156206 L60.178285,30.4156206 L60.178285,33.9783821 Z M60.178285,28.4846583 L63.1997771,28.4846583 C63.937587,28.4846583 64.5187499,28.3320564 64.9432834,28.026848 C65.3678169,27.7216396 65.5800804,27.2728993 65.5800804,26.6806137 C65.5800804,26.1668965 65.3868474,25.7634836 65.0003755,25.4703626 C64.6139037,25.1772417 64.0693379,25.0306834 63.3666618,25.0306834 L60.178285,25.0306834 L60.178285,28.4846583 Z M73.6501579,36 L73.6501579,23 L76.0128945,23 L79.84246,29.1464435 L83.6720255,23 L86.0259787,23 L86.0259787,36 L83.81256,36 L83.81256,26.6806137 L79.84246,32.8089261 L79.7721927,32.8089261 L75.8284429,26.7168759 L75.8284429,36 L73.6501579,36 Z M91.030647,25.1213389 L91.030647,23 L101.24575,23 L101.24575,25.1213389 L97.2580828,25.1213389 L97.2580828,36 L95.0270973,36 L95.0270973,25.1213389 L91.030647,25.1213389 Z M106.250418,36 L106.250418,23 L111.221826,23 C112.685735,23 113.848061,23.3973693 114.708839,24.1921199 C115.569617,24.9868705 116,26.0520621 116,27.3877266 C116,28.3305486 115.77017,29.1419073 115.310503,29.8218271 C114.850835,30.5017468 114.247714,31.0048798 113.501121,31.3312413 C112.754527,31.6576027 111.909865,31.820781 110.967108,31.820781 L108.463837,31.820781 L108.463837,36 L106.250418,36 Z M108.463837,29.762901 L111.037375,29.762901 C111.863019,29.762901 112.521768,29.5468408 113.013642,29.1147141 C113.505515,28.6825873 113.751448,28.1129742 113.751448,27.4058577 C113.751448,26.6564351 113.509906,26.0822893 113.026817,25.6834031 C112.543727,25.2845168 111.880586,25.0850767 111.037375,25.0850767 L108.463837,25.0850767 L108.463837,29.762901 Z" id="BMTP" fill="#4A4A4A"></path>
                        <g id="Group-6" stroke-width="1" transform="translate(18.000000, 18.000000)">
                            <g id="body">
                                <mask id="mask-2" fill="white">
                                    <use xlink:href="#path-1"></use>
                                </mask>
                                <g id="Mask"></g>
                                <g id="Mixin/Colors/Blue" mask="url(#mask-2)" fill="#0063B9">
                                    <rect id="Rectangle-2" x="0" y="0" width="12" height="12"></rect>
                                </g>
                            </g>
                            <g id="play" transform="translate(12.000000, 12.000000)">
                                <mask id="mask-4" fill="white">
                                    <use xlink:href="#path-3"></use>
                                </mask>
                                <g id="Mask"></g>
                                <g id="Mixin/Colors/Blue" mask="url(#mask-4)" fill="#F6A623">
                                    <rect id="Rectangle-2" x="0" y="0" width="12" height="12"></rect>
                                </g>
                            </g>
                            <g id="mind" transform="translate(12.000000, 0.000000)">
                                <mask id="mask-6" fill="white">
                                    <use xlink:href="#path-5"></use>
                                </mask>
                                <g id="Mask"></g>
                                <g id="Mixin/Colors/Blue" mask="url(#mask-6)" fill="#E6021C">
                                    <rect id="Rectangle-2" x="0" y="0" width="12" height="12"></rect>
                                </g>
                            </g>
                            <g id="team" transform="translate(0.000000, 12.000000)">
                                <mask id="mask-8" fill="white">
                                    <use xlink:href="#path-7"></use>
                                </mask>
                                <g id="Mask"></g>
                                <g id="Mixin/Colors/Blue" mask="url(#mask-8)" fill="#7ACC1C">
                                    <rect id="Rectangle-2" x="0" y="0" width="12" height="12"></rect>
                                </g>
                            </g>
                        </g>
                    </g>
                </g>
            </g>
        </g>
    </g>
</svg>