<?xml version="1.0" encoding="UTF-8"?>
<svg width="36px" height="36px" viewBox="0 0 36 36" version="1.1" xmlns="http://www.w3.org/2000/svg" xmlns:xlink="http://www.w3.org/1999/xlink">
    <!-- Generator: Sketch 42 (36781) - http://www.bohemiancoding.com/sketch -->
    <title>logo-white-no-letters</title>
    <desc>Created with Sketch.</desc>
    <defs>
        <path d="M0,0.719113648 C0,0.321958147 0.32221853,0 0.719113648,0 L35.2808864,0 C35.6780419,0 36,0.32221853 36,0.719113648 L36,35.2808864 C36,35.6780419 35.6777815,36 35.2808864,36 L0.719113648,36 C0.321958147,36 0,35.6777815 0,35.2808864 L0,0.719113648 Z M13.14,31.32 C14.3329351,31.32 15.3,30.3529351 15.3,29.16 C15.3,27.9670649 14.3329351,27 13.14,27 C11.9470649,27 10.98,27.9670649 10.98,29.16 C10.98,30.3529351 11.9470649,31.32 13.14,31.32 Z M13.14,24.84 C14.3329351,24.84 15.3,23.8729351 15.3,22.68 C15.3,21.4870649 14.3329351,20.52 13.14,20.52 C11.9470649,20.52 10.98,21.4870649 10.98,22.68 C10.98,23.8729351 11.9470649,24.84 13.14,24.84 Z M6.66,31.32 C7.85293506,31.32 8.82,30.3529351 8.82,29.16 C8.82,27.9670649 7.85293506,27 6.66,27 C5.46706494,27 4.5,27.9670649 4.5,29.16 C4.5,30.3529351 5.46706494,31.32 6.66,31.32 Z M6.66,24.84 C7.85293506,24.84 8.82,23.8729351 8.82,22.68 C8.82,21.4870649 7.85293506,20.52 6.66,20.52 C5.46706494,20.52 4.5,21.4870649 4.5,22.68 C4.5,23.8729351 5.46706494,24.84 6.66,24.84 Z M26.1,15.66 C28.7841039,15.66 30.96,13.4841039 30.96,10.8 C30.96,8.11589612 28.7841039,5.94 26.1,5.94 C23.4158961,5.94 21.24,8.11589612 21.24,10.8 C21.24,13.4841039 23.4158961,15.66 26.1,15.66 Z M30.7025821,26.0895493 L22.0374179,20.8904507 C21.6951153,20.6850692 21.42,20.8427233 21.42,21.2408227 L21.42,31.6791773 C21.42,32.0760774 21.6964274,32.2341436 22.0374179,32.0295493 L30.7025821,26.8304507 C31.0448847,26.6250692 31.0435726,26.2941436 30.7025821,26.0895493 Z M5.22,6.30129415 L5.22,13.8587059 C5.22,14.2570317 5.54293439,14.58 5.94129415,14.58 L13.4987059,14.58 C13.8970317,14.58 14.22,14.2570656 14.22,13.8587059 L14.22,6.30129415 C14.22,5.90296829 13.8970656,5.58 13.4987059,5.58 L5.94129415,5.58 C5.54296829,5.58 5.22,5.90293439 5.22,6.30129415 Z" id="path-1"></path>
    </defs>
    <g id="Page-1" stroke="none" stroke-width="1" fill="none" fill-rule="evenodd">
        <g id="00---Landing" transform="translate(-435.000000, -164.000000)">
            <g id="Hero-banner">
                <g id="logos/BMTP-mono" transform="translate(435.000000, 164.000000)">
                    <g id="Group-2">
                        <g id="Mixin/Colors/Blue">
                            <mask id="mask-2" fill="white">
                                <use xlink:href="#path-1"></use>
                            </mask>
                            <use id="Mask" fill-opacity="0.67" fill="#000000" xlink:href="#path-1"></use>
                            <g id="Mixin/Colors/White" mask="url(#mask-2)" fill="#FFFFFF">
                                <rect id="Rectangle-2" x="0" y="0" width="36" height="36"></rect>
                            </g>
                        </g>
                    </g>
                </g>
            </g>
        </g>
    </g>
</svg>