<?xml version="1.0" encoding="UTF-8"?>
<svg width="200px" height="60px" viewBox="0 0 200 60" version="1.1" xmlns="http://www.w3.org/2000/svg" xmlns:xlink="http://www.w3.org/1999/xlink">
    <!-- Generator: Sketch 42 (36781) - http://www.bohemiancoding.com/sketch -->
    <title>logo-white</title>
    <desc>Created with Sketch.</desc>
    <defs>
        <path d="M0,0.479409099 C0,0.214638765 0.214812353,0 0.479409099,0 L23.5205909,0 C23.7853612,0 24,0.214812353 24,0.479409099 L24,23.5205909 C24,23.7853612 23.7851876,24 23.5205909,24 L0.479409099,24 C0.214638765,24 0,23.7851876 0,23.5205909 L0,0.479409099 Z M8.76,20.88 C9.55529004,20.88 10.2,20.23529 10.2,19.44 C10.2,18.64471 9.55529004,18 8.76,18 C7.96470996,18 7.32,18.64471 7.32,19.44 C7.32,20.23529 7.96470996,20.88 8.76,20.88 Z M8.76,16.56 C9.55529004,16.56 10.2,15.91529 10.2,15.12 C10.2,14.32471 9.55529004,13.68 8.76,13.68 C7.96470996,13.68 7.32,14.32471 7.32,15.12 C7.32,15.91529 7.96470996,16.56 8.76,16.56 Z M4.44,20.88 C5.23529004,20.88 5.88,20.23529 5.88,19.44 C5.88,18.64471 5.23529004,18 4.44,18 C3.64470996,18 3,18.64471 3,19.44 C3,20.23529 3.64470996,20.88 4.44,20.88 Z M4.44,16.56 C5.23529004,16.56 5.88,15.91529 5.88,15.12 C5.88,14.32471 5.23529004,13.68 4.44,13.68 C3.64470996,13.68 3,14.32471 3,15.12 C3,15.91529 3.64470996,16.56 4.44,16.56 Z M17.4,10.44 C19.1894026,10.44 20.64,8.98940259 20.64,7.2 C20.64,5.41059741 19.1894026,3.96 17.4,3.96 C15.6105974,3.96 14.16,5.41059741 14.16,7.2 C14.16,8.98940259 15.6105974,10.44 17.4,10.44 Z M20.4683881,17.3930329 L14.6916119,13.9269671 C14.4634102,13.7900461 14.28,13.8951489 14.28,14.1605485 L14.28,21.1194515 C14.28,21.3840516 14.4642849,21.489429 14.6916119,21.3530329 L20.4683881,17.8869671 C20.6965898,17.7500461 20.6957151,17.529429 20.4683881,17.3930329 Z M3.48,4.20086277 L3.48,9.23913723 C3.48,9.50468781 3.69528959,9.72 3.96086277,9.72 L8.99913723,9.72 C9.26468781,9.72 9.48,9.50471041 9.48,9.23913723 L9.48,4.20086277 C9.48,3.93531219 9.26471041,3.72 8.99913723,3.72 L3.96086277,3.72 C3.69531219,3.72 3.48,3.93528959 3.48,4.20086277 Z" id="path-1"></path>
    </defs>
    <g id="Page-1" stroke="none" stroke-width="1" fill="none" fill-rule="evenodd">
        <g id="00.1---Top-navigation-white" transform="translate(-163.000000, 0.000000)">
            <g id="header">
                <g id="logo-white" transform="translate(163.000000, 0.000000)">
                    <rect id="bg" fill-opacity="0" fill="#D8D8D8" x="0" y="0" width="200" height="60"></rect>
                    <g id="logos/BMTP-mono" transform="translate(18.000000, 18.000000)">
                        <g id="Group-2">
                            <g id="Mixin/Colors/Blue">
                                <mask id="mask-2" fill="white">
                                    <use xlink:href="#path-1"></use>
                                </mask>
                                <use id="Mask" fill-opacity="0.67" fill="#000000" xlink:href="#path-1"></use>
                                <g id="Mixin/Colors/White" mask="url(#mask-2)" fill="#FFFFFF">
                                    <rect id="Rectangle-2" x="0" y="0" width="24" height="24"></rect>
                                </g>
                            </g>
                        </g>
                    </g>
                    <path d="M58,36 L58,23 L63.6477308,23 C65.0999281,23 66.197843,23.3837712 66.9415085,24.151325 C67.5036494,24.7315231 67.7847156,25.4628036 67.7847156,26.3451883 C67.7847156,27.6385467 67.1874499,28.6055291 65.9929006,29.2461646 C66.7951224,29.5241762 67.4114187,29.9124801 67.8418078,30.4110879 C68.2721969,30.9096957 68.4873882,31.5850724 68.4873882,32.4372385 C68.4873882,33.5795036 68.0687166,34.4588533 67.231361,35.0753138 C66.3940053,35.6917744 65.2609571,36 63.8321824,36 L58,36 Z M60.178285,33.9783821 L63.8497492,33.9783821 C64.6168373,33.9783821 65.2126391,33.8227584 65.6371726,33.5115063 C66.061706,33.2002541 66.2739696,32.748492 66.2739696,32.1562064 C66.2739696,31.6001832 66.0573144,31.1710847 65.6239975,30.8688982 C65.1906805,30.5667116 64.5436427,30.4156206 63.6828645,30.4156206 L60.178285,30.4156206 L60.178285,33.9783821 Z M60.178285,28.4846583 L63.1997771,28.4846583 C63.937587,28.4846583 64.5187499,28.3320564 64.9432834,28.026848 C65.3678169,27.7216396 65.5800804,27.2728993 65.5800804,26.6806137 C65.5800804,26.1668965 65.3868474,25.7634836 65.0003755,25.4703626 C64.6139037,25.1772417 64.0693379,25.0306834 63.3666618,25.0306834 L60.178285,25.0306834 L60.178285,28.4846583 Z M73.6501579,36 L73.6501579,23 L76.0128945,23 L79.84246,29.1464435 L83.6720255,23 L86.0259787,23 L86.0259787,36 L83.81256,36 L83.81256,26.6806137 L79.84246,32.8089261 L79.7721927,32.8089261 L75.8284429,26.7168759 L75.8284429,36 L73.6501579,36 Z M91.030647,25.1213389 L91.030647,23 L101.24575,23 L101.24575,25.1213389 L97.2580828,25.1213389 L97.2580828,36 L95.0270973,36 L95.0270973,25.1213389 L91.030647,25.1213389 Z M106.250418,36 L106.250418,23 L111.221826,23 C112.685735,23 113.848061,23.3973693 114.708839,24.1921199 C115.569617,24.9868705 116,26.0520621 116,27.3877266 C116,28.3305486 115.77017,29.1419073 115.310503,29.8218271 C114.850835,30.5017468 114.247714,31.0048798 113.501121,31.3312413 C112.754527,31.6576027 111.909865,31.820781 110.967108,31.820781 L108.463837,31.820781 L108.463837,36 L106.250418,36 Z M108.463837,29.762901 L111.037375,29.762901 C111.863019,29.762901 112.521768,29.5468408 113.013642,29.1147141 C113.505515,28.6825873 113.751448,28.1129742 113.751448,27.4058577 C113.751448,26.6564351 113.509906,26.0822893 113.026817,25.6834031 C112.543727,25.2845168 111.880586,25.0850767 111.037375,25.0850767 L108.463837,25.0850767 L108.463837,29.762901 Z" id="BMTP" fill="#FFFFFF"></path>
                </g>
            </g>
        </g>
    </g>
</svg>