<?xml version="1.0" encoding="UTF-8"?>
<svg width="43px" height="46px" viewBox="0 0 43 46" version="1.1" xmlns="http://www.w3.org/2000/svg" xmlns:xlink="http://www.w3.org/1999/xlink">
    <!-- Generator: Sketch 42 (36781) - http://www.bohemiancoding.com/sketch -->
    <title>logo-team</title>
    <desc>Created with Sketch.</desc>
    <defs>
        <path d="M0,0 L25,0 L25,25 L0,25 L0,0 Z M8,11 C9.65685425,11 11,9.65685425 11,8 C11,6.34314575 9.65685425,5 8,5 C6.34314575,5 5,6.34314575 5,8 C5,9.65685425 6.34314575,11 8,11 Z M8,20 C9.65685425,20 11,18.6568542 11,17 C11,15.3431458 9.65685425,14 8,14 C6.34314575,14 5,15.3431458 5,17 C5,18.6568542 6.34314575,20 8,20 Z M17,11 C18.6568542,11 20,9.65685425 20,8 C20,6.34314575 18.6568542,5 17,5 C15.3431458,5 14,6.34314575 14,8 C14,9.65685425 15.3431458,11 17,11 Z M17,20 C18.6568542,20 20,18.6568542 20,17 C20,15.3431458 18.6568542,14 17,14 C15.3431458,14 14,15.3431458 14,17 C14,18.6568542 15.3431458,20 17,20 Z" id="path-1"></path>
    </defs>
    <g id="Page-1" stroke="none" stroke-width="1" fill="none" fill-rule="evenodd">
        <g id="00---Landing" transform="translate(-759.000000, -1177.000000)">
            <g id="Subhero" transform="translate(0.000000, 763.000000)">
                <g id="Intro" transform="translate(165.000000, 394.000000)">
                    <g id="Group-8" transform="translate(570.000000, 0.000000)">
                        <g id="logos/team/normal" transform="translate(24.000000, 20.000000)">
                            <g>
                                <g id="team">
                                    <mask id="mask-2" fill="white">
                                        <use xlink:href="#path-1"></use>
                                    </mask>
                                    <g id="Mask"></g>
                                    <g id="Mixin/Colors/Green" mask="url(#mask-2)">
                                        <rect id="Rectangle-2" fill="#62B307" x="0" y="0" width="25" height="25"></rect>
                                        <rect id="Rectangle-2" fill="#7ACC1C" x="0" y="0" width="25" height="25"></rect>
                                    </g>
                                </g>
                                <path d="M34.9354612,43.2088842 C32.0359663,43.2088842 29.6854612,40.8583792 29.6854612,37.9588842 C29.6854612,35.0593893 32.0359663,32.7088842 34.9354612,32.7088842 C37.8349561,32.7088842 40.1854612,35.0593893 40.1854612,37.9588842 C40.1854612,40.8583792 37.8349561,43.2088842 34.9354612,43.2088842 Z M34.9792112,29.1213842 C32.1038787,29.1213842 29.7729612,26.7904667 29.7729612,23.9151342 C29.7729612,21.0398018 32.1038787,18.7088842 34.9792112,18.7088842 C37.8545437,18.7088842 40.1854612,21.0398018 40.1854612,23.9151342 C40.1854612,26.7904667 37.8545437,29.1213842 34.9792112,29.1213842 Z M20.8917112,43.2088842 C18.0163787,43.2088842 15.6854612,40.8779667 15.6854612,38.0026342 C15.6854612,35.1273018 18.0163787,32.7963842 20.8917112,32.7963842 C23.7670437,32.7963842 26.0979612,35.1273018 26.0979612,38.0026342 C26.0979612,40.8779667 23.7670437,43.2088842 20.8917112,43.2088842 Z M20.8917112,29.1213842 C18.0163787,29.1213842 15.6854612,26.7904667 15.6854612,23.9151342 C15.6854612,21.0398018 18.0163787,18.7088842 20.8917112,18.7088842 C23.7670437,18.7088842 26.0979612,21.0398018 26.0979612,23.9151342 C26.0979612,26.7904667 23.7670437,29.1213842 20.8917112,29.1213842 Z" id="Combined-Shape" fill-opacity="0.1" fill="#000000" transform="translate(27.935461, 30.958884) rotate(65.000000) translate(-27.935461, -30.958884) "></path>
                                <ellipse id="Oval-6-Copy-10" fill-opacity="0.1" fill="#000000" cx="29.4642857" cy="8.46428571" rx="3.21428571" ry="3.21428571"></ellipse>
                                <ellipse id="Oval-6-Copy-9" fill-opacity="0.1" fill="#000000" cx="37.9642857" cy="12.2142857" rx="3.21428571" ry="3.21428571"></ellipse>
                            </g>
                        </g>
                    </g>
                </g>
            </g>
        </g>
    </g>
</svg>