<?xml version="1.0" encoding="utf-8"?>
<!-- Generator: Adobe Illustrator 19.1.0, SVG Export Plug-In . SVG Version: 6.00 Build 0)  -->
<svg version="1.1" id="Layer_1" xmlns="http://www.w3.org/2000/svg" xmlns:xlink="http://www.w3.org/1999/xlink" x="0px" y="0px"
	 width="100px" height="100px" viewBox="-31 -14 100 100" style="enable-background:new -31 -14 100 100;" xml:space="preserve">
<style type="text/css">
	.st0{fill:#51355A;}
</style>
<path class="st0" d="M63.9,77.3C63.9,77.4,63.9,77.4,63.9,77.3c-0.1,0.2-0.1,0.2-0.2,0.3c0,0,0,0.1-0.1,0.1
	c-0.1,0.1-0.2,0.1-0.3,0.2c0,0,0,0,0,0c0,0,0,0,0,0C63.3,78,63.2,78,63,78c0,0,0,0,0,0H26.4l0.6,1.7c0.1,0.3,0.1,0.6-0.1,0.9
	C26.6,80.8,26.3,81,26,81H12c-0.3,0-0.6-0.2-0.8-0.4c-0.2-0.3-0.2-0.6-0.1-0.9l0.6-1.7H-25c0,0,0,0,0,0c-0.1,0-0.2,0-0.3-0.1
	c0,0,0,0,0,0c0,0,0,0,0,0c-0.1,0-0.2-0.1-0.3-0.2c0,0,0-0.1-0.1-0.1c-0.1-0.1-0.1-0.1-0.1-0.2c0,0,0-0.1,0-0.1
	c0-0.1-0.1-0.2-0.1-0.3V29c0-0.3,0.1-0.5,0.3-0.7C-25.3,27.9-16.3,19-4,19c10.7,0,20.4,6.8,23,8.7c2.6-1.9,12.3-8.7,23-8.7
	c12.3,0,21.3,8.9,21.7,9.3c0.2,0.2,0.3,0.4,0.3,0.7v48C64,77.1,64,77.2,63.9,77.3z M13,76c0.3,0,0.6,0.2,0.8,0.4
	c0.2,0.3,0.2,0.6,0.1,0.9L13.4,79h11.2l-0.6-1.7c-0.1-0.3-0.1-0.6,0.1-0.9c0.2-0.3,0.5-0.4,0.8-0.4h35.3c-3.2-2.5-10.1-7-18.3-7
	c-11.5,0-22.3,8.7-22.4,8.8C19.4,77.9,19.2,78,19,78s-0.4-0.1-0.6-0.2C18.3,77.7,7.5,69-4,69c-8.2,0-15.1,4.5-18.3,7H13z M62,29.4
	c-1.6-1.5-9.7-8.4-20-8.4c-11.5,0-22.3,8.7-22.4,8.8c-0.4,0.3-0.9,0.3-1.3,0C18.3,29.7,7.5,21-4,21c-10.3,0-18.4,6.9-20,8.4v4.2
	l6.3-6.3c0.4-0.4,1-0.4,1.4,0c0.4,0.4,0.4,1,0,1.4l-7.7,7.7v3.2l6.3-6.3c0.4-0.4,1-0.4,1.4,0c0.4,0.4,0.4,1,0,1.4l-7.7,7.7v3.2
	l6.3-6.3c0.4-0.4,1-0.4,1.4,0c0.4,0.4,0.4,1,0,1.4l-7.7,7.7v3.2l6.3-6.3c0.4-0.4,1-0.4,1.4,0c0.4,0.4,0.4,1,0,1.4l-7.7,7.7v3.2
	l6.3-6.3c0.4-0.4,1-0.4,1.4,0c0.4,0.4,0.4,1,0,1.4l-7.7,7.7v3.2l6.3-6.3c0.4-0.4,1-0.4,1.4,0c0.4,0.4,0.4,1,0,1.4l-7.7,7.7v3.2
	l6.3-6.3c0.4-0.4,1-0.4,1.4,0c0.4,0.4,0.4,1,0,1.4l-7.7,7.7v2.4c3.2-2.6,10.7-7.8,20-7.8c10.7,0,20.4,6.8,23,8.7
	c2.6-1.9,12.3-8.7,23-8.7c9.3,0,16.8,5.1,20,7.8V29.4z M41.3,43.7c-0.4-0.4-0.4-1,0-1.4l2.3-2.3l-2.3-2.3c-0.4-0.4-0.4-1,0-1.4
	s1-0.4,1.4,0l2.3,2.3l2.3-2.3c0.4-0.4,1-0.4,1.4,0s0.4,1,0,1.4L46.4,40l2.3,2.3c0.4,0.4,0.4,1,0,1.4C48.5,43.9,48.3,44,48,44
	s-0.5-0.1-0.7-0.3L45,41.4l-2.3,2.3C42.5,43.9,42.3,44,42,44S41.5,43.9,41.3,43.7z M38,44.2c-0.1,0.4-0.4,0.7-0.8,0.7
	c-0.1,0-0.1,0-0.2,0c-0.3,0-0.6-0.1-0.8-0.4l-3-4c-0.3-0.4-0.2-1.1,0.2-1.4c0.4-0.3,1.1-0.2,1.4,0.2l1.7,2.3l2.5-10
	c0.1-0.4,0.5-0.8,1-0.8h10c0.4,0,0.7,0.2,0.9,0.6l1,2c0.2,0.5,0,1.1-0.4,1.3c-0.5,0.2-1.1,0-1.3-0.4L49.4,33h-8.6L38,44.2z
	 M19.7,66.7C19.5,66.9,19.3,67,19,67s-0.5-0.1-0.7-0.3c-0.4-0.4-0.4-1,0-1.4l8-8c0.4-0.4,1-0.4,1.4,0s0.4,1,0,1.4L19.7,66.7z
	 M19.7,60.7C19.5,60.9,19.3,61,19,61s-0.5-0.1-0.7-0.3c-0.4-0.4-0.4-1,0-1.4l8-8c0.4-0.4,1-0.4,1.4,0s0.4,1,0,1.4L19.7,60.7z
	 M19.7,54.7C19.5,54.9,19.3,55,19,55s-0.5-0.1-0.7-0.3c-0.4-0.4-0.4-1,0-1.4l8-8c0.4-0.4,1-0.4,1.4,0s0.4,1,0,1.4L19.7,54.7z
	 M19.7,48.7C19.5,48.9,19.3,49,19,49s-0.5-0.1-0.7-0.3c-0.4-0.4-0.4-1,0-1.4l8-8c0.4-0.4,1-0.4,1.4,0s0.4,1,0,1.4L19.7,48.7z
	 M19.7,42.7C19.5,42.9,19.3,43,19,43s-0.5-0.1-0.7-0.3c-0.4-0.4-0.4-1,0-1.4l8-8c0.4-0.4,1-0.4,1.4,0s0.4,1,0,1.4L19.7,42.7z
	 M19.7,36.7C19.5,36.9,19.3,37,19,37s-0.5-0.1-0.7-0.3c-0.4-0.4-0.4-1,0-1.4l8-8c0.4-0.4,1-0.4,1.4,0s0.4,1,0,1.4L19.7,36.7z M6,47
	H-6c-0.6,0-1-0.4-1-1s0.4-1,1-1H6c0.6,0,1,0.4,1,1S6.6,47,6,47z M6,37H1v5c0,0.6-0.4,1-1,1s-1-0.4-1-1v-5h-5c-0.6,0-1-0.4-1-1
	s0.4-1,1-1h5v-5c0-0.6,0.4-1,1-1s1,0.4,1,1v5h5c0.6,0,1,0.4,1,1S6.6,37,6,37z M45,16c-1.7,0-3-1.3-3-3s1.3-3,3-3s3,1.3,3,3
	S46.7,16,45,16z M45,12c-0.6,0-1,0.4-1,1s0.4,1,1,1s1-0.4,1-1S45.6,12,45,12z M36.7,14.7C36.5,14.9,36.3,15,36,15s-0.5-0.1-0.7-0.3
	c-0.4-0.4-0.4-1,0-1.4l10-10c0.4-0.4,1-0.4,1.4,0s0.4,1,0,1.4L36.7,14.7z M37,8c-1.7,0-3-1.3-3-3s1.3-3,3-3s3,1.3,3,3S38.7,8,37,8z
	 M37,4c-0.6,0-1,0.4-1,1s0.4,1,1,1s1-0.4,1-1S37.6,4,37,4z M23.8,5.9c0.8,0.2,1.9-0.3,2.2-1.3c0.2-0.5,0.7-0.8,1.3-0.6
	c0.5,0.2,0.8,0.7,0.6,1.3C27.4,6.9,25.9,8,24.3,8c-0.3,0-0.6,0-0.9-0.1c-1.5-0.4-2.9-1.9-2.3-5.1l1-7.9c0.1-0.5,0.6-0.9,1.1-0.9
	c0.5,0.1,0.9,0.6,0.9,1.1l-1,8C22.7,4.7,23,5.7,23.8,5.9z M13.3,6.1c0,0,0.5,0.2,1.1-0.2c0.7-0.4,1.3-1.5,1.6-3l1-7.9
	c0.1-0.5,0.6-0.9,1.1-0.9c0.5,0.1,0.9,0.6,0.9,1.1l-1,8c-0.4,2.3-1.3,3.7-2.6,4.5c-0.7,0.4-1.3,0.5-1.8,0.5c-0.5,0-0.9-0.1-0.9-0.1
	c-0.5-0.2-0.8-0.7-0.6-1.3C12.2,6.2,12.8,5.9,13.3,6.1z M27-7H17c-2.2,0-3,2.2-3.1,2.3C13.8-4.3,13.4-4,13-4c-0.1,0-0.2,0-0.3-0.1
	c-0.5-0.2-0.8-0.7-0.6-1.3C12.1-5.5,13.3-9,17-9h10c0.6,0,1,0.4,1,1S27.6-7,27-7z M2.7,13.7C2.5,13.9,2.3,14,2,14s-0.5-0.1-0.7-0.3
	L-2,10.4l-3.3,3.3C-5.5,13.9-5.7,14-6,14s-0.5-0.1-0.7-0.3c-0.4-0.4-0.4-1,0-1.4L-3.4,9l-3.3-3.3c-0.4-0.4-0.4-1,0-1.4
	c0.4-0.4,1-0.4,1.4,0L-2,7.6l3.3-3.3c0.4-0.4,1-0.4,1.4,0c0.4,0.4,0.4,1,0,1.4L-0.6,9l3.3,3.3C3.1,12.7,3.1,13.3,2.7,13.7z"/>
</svg>
