<svg xmlns="http://www.w3.org/2000/svg" xmlns:xlink="http://www.w3.org/1999/xlink" preserveAspectRatio="xMidYMid" width="9.188" height="14.31" viewBox="0 0 9.188 14.31">
  <defs>
    <style>
      .cls-1 {
        fill: #51355a;
        fill-rule: evenodd;
      }
    </style>
  </defs>
  <path d="M4.592,-0.004 C2.041,-0.004 -0.007,2.070 -0.007,4.607 C-0.007,6.581 2.744,11.715 3.989,13.930 C4.250,14.393 4.933,14.393 5.194,13.930 C6.440,11.715 9.191,6.581 9.191,4.607 C9.191,2.070 7.142,-0.004 4.592,-0.004 ZM4.592,7.124 C3.327,7.124 2.302,6.097 2.302,4.829 C2.302,3.560 3.327,2.533 4.592,2.533 C5.857,2.533 6.881,3.560 6.881,4.829 C6.881,6.097 5.857,7.124 4.592,7.124 Z" class="cls-1"/>
</svg>
