<?xml version="1.0" encoding="utf-8"?>
<!-- Generator: Adobe Illustrator 19.1.0, SVG Export Plug-In . SVG Version: 6.00 Build 0)  -->
<svg version="1.1" id="Layer_1" xmlns="http://www.w3.org/2000/svg" xmlns:xlink="http://www.w3.org/1999/xlink" x="0px" y="0px"
	 width="100px" height="100px" viewBox="579 -14 100 100" style="enable-background:new 579 -14 100 100;" xml:space="preserve">
<style type="text/css">
	.st0{fill:#FFFFFF;}
</style>
<g>
	<path class="st0" d="M652.8,25H645V2.5c0-2.5-2-4.5-4.5-4.5h-39C599-2,597,0,597,2.5v45c0,2.5,2,4.5,4.5,4.5H633v13.8
		c0,2.3,1.9,4.2,4.2,4.2h15.7c2.3,0,4.2-1.9,4.2-4.2V29.2C657,26.9,655.1,25,652.8,25z M636,25.2c-1.7,0.5-3,2.1-3,4V37h-27V7h30v18
		C636,25.1,636,25.1,636,25.2z M636,37h18c0,0,0,0,0,0v24c0,0,0,0,0,0h-18V37z M652.8,28c0.7,0,1.2,0.5,1.2,1.2V34c0,0,0,0,0,0h-18
		v-4.8c0-0.6,0.5-1.2,1.2-1.2H652.8z M601.5,49c-0.8,0-1.5-0.7-1.5-1.5v-45c0-0.8,0.7-1.5,1.5-1.5h39c0.8,0,1.5,0.7,1.5,1.5V25h-3
		V5.5c0-0.8-0.7-1.5-1.5-1.5h-33c-0.8,0-1.5,0.7-1.5,1.5v33c0,0.8,0.7,1.5,1.5,1.5H633v9H601.5z M652.8,67h-15.7
		c-0.7,0-1.2-0.5-1.2-1.2V64h18c0,0,0,0,0,0v1.8C654,66.5,653.5,67,652.8,67z"/>
	<path class="st0" d="M624,43h-6c-0.8,0-1.5,0.7-1.5,1.5s0.7,1.5,1.5,1.5h6c0.8,0,1.5-0.7,1.5-1.5S624.8,43,624,43z"/>
</g>
</svg>
