<?xml version="1.0" encoding="utf-8"?>
<!-- Generator: Adobe Illustrator 19.1.0, SVG Export Plug-In . SVG Version: 6.00 Build 0)  -->
<svg version="1.1" id="Layer_1" xmlns="http://www.w3.org/2000/svg" xmlns:xlink="http://www.w3.org/1999/xlink" x="0px" y="0px"
	 width="100px" height="100px" viewBox="819 -14 100 100" style="enable-background:new 819 -14 100 100;" xml:space="preserve">
<style type="text/css">
	.st0{fill:#FFFFFF;}
</style>
<path class="st0" d="M907.2,38.9h-2.1V21.7c0-3.3-3.4-5.7-6.4-5.7h-3.5c-1.9-4.6-6.2-7.9-11.3-8.5C882-2,873.4-9.2,863.4-9.2
	c-7.9,0-15.1,4.5-18.7,11.5c-8.7,0.4-15.6,7.6-15.6,16.4c0,9,7.4,16.4,16.4,16.4h2.5V56h-4.3c-0.8,0-1.4,0.6-1.4,1.4v1.4
	c0,3.4,2,5.7,5,5.7h43.6v7.8c0,2,1.6,3.7,3.7,3.7h12.7c2,0,3.7-1.6,3.7-3.7V42.5C910.9,40.5,909.2,38.9,907.2,38.9z M845.5,31
	c-6.8,0-12.3-5.5-12.3-12.3s5.5-12.3,12.3-12.3c0.2,0,0.3,0,0.4-0.1l1.4,0.1l0.6-1.3C850.6-1,856.7-5,863.5-5
	c8.5,0,15.8,6.4,16.8,14.9l0.2,1.8h2.1c3.3,0,6.3,1.7,8.1,4.3H853c-3,0-5,2.3-5,5.7V31H845.5z M890.9,61.7h-43.6
	c-2,0-2.1-2.2-2.1-2.9h4.3h41.4V61.7z M890.9,56h-40V21.7c0-0.7,0.2-2.9,2.1-2.9h45.7c1.6,0,3.6,1.3,3.6,2.9v17.1h-2.9V23.1
	c0-0.8-0.6-1.4-1.4-1.4h-42.9c-0.8,0-1.4,0.6-1.4,1.4v28.6c0,0.8,0.6,1.4,1.4,1.4h35.7V56z M890.9,42.5v7.8h-34.3V24.6h40v14.3h-2.1
	C892.5,38.9,890.9,40.5,890.9,42.5z M908,72.3c0,0.4-0.4,0.8-0.8,0.8h-12.7c-0.4,0-0.8-0.4-0.8-0.8v-2.1H908V72.3z M908,67.4h-14.3
	v-20H908V67.4z M908,44.6h-14.3v-2.1c0-0.4,0.4-0.8,0.8-0.8h12.7c0.4,0,0.8,0.4,0.8,0.8V44.6z"/>
</svg>
