<?xml version="1.0" encoding="utf-8"?>
<!-- Generator: Adobe Illustrator 19.1.0, SVG Export Plug-In . SVG Version: 6.00 Build 0)  -->
<svg version="1.1" id="Layer_1" xmlns="http://www.w3.org/2000/svg" xmlns:xlink="http://www.w3.org/1999/xlink" x="0px" y="0px"
	 width="100px" height="100px" viewBox="699 -14 100 100" style="enable-background:new 699 -14 100 100;" xml:space="preserve">
<style type="text/css">
	.st0{fill:#FFFFFF;}
</style>
<g>
	<path class="st0" d="M777.7,7H741v-7.5c0-0.8-0.7-1.5-1.5-1.5h-27c-0.8,0-1.5,0.7-1.5,1.5v69c0,0.8,0.7,1.5,1.5,1.5H738h1.5h16.2
		c0.5,0,0.9-0.2,1.2-0.6c0.3-0.3,0.4-0.8,0.3-1.3L755,58h22.6c2.9,0,5.3-2.4,5.3-5.3V12.3C783,9.4,780.6,7,777.7,7z M741,16h39v30
		h-39V16z M777.7,10c1.3,0,2.3,1,2.3,2.3V13h-39v-3H777.7z M714,1h24v48h-24V1z M714,67V52h24v15H714z M753.9,67H741v-9h10.9
		L753.9,67z M780,52.7c0,1.3-1,2.3-2.3,2.3h-24.5H741v-6h39V52.7z"/>
	<path class="st0" d="M733.5,22h-15c-0.8,0-1.5,0.7-1.5,1.5v12c0,0.8,0.7,1.5,1.5,1.5h15c0.8,0,1.5-0.7,1.5-1.5v-12
		C735,22.7,734.3,22,733.5,22z M720,25h12v3h-12V25z M732,34h-12v-3h12V34z"/>
</g>
</svg>
